<svg width="186" height="57" viewBox="0 0 186 57" fill="none" xmlns="http://www.w3.org/2000/svg">
<path d="M23.6198 30.0886C23.6198 28.5644 23.0763 27.3989 21.9894 26.592C20.9023 25.7672 18.9457 24.9064 16.1195 24.0099C13.2934 23.0954 11.0559 22.1989 9.4073 21.3203C4.91436 18.9174 2.66789 15.6808 2.66789 11.6104C2.66789 9.49453 3.26574 7.61174 4.46144 5.96206C5.67525 4.29445 7.40541 2.99443 9.65188 2.062C11.9165 1.12958 14.4528 0.663363 17.2609 0.663363C20.0871 0.663363 22.6053 1.1744 24.8155 2.19649C27.0258 3.20064 28.7379 4.62618 29.9516 6.47311C31.1836 8.32003 31.7996 10.418 31.7996 12.767H23.647C23.647 10.9739 23.0763 9.58419 21.9351 8.59796C20.7937 7.59381 19.1903 7.09173 17.1251 7.09173C15.1321 7.09173 13.5833 7.51312 12.478 8.35589C11.373 9.18074 10.8204 10.2745 10.8204 11.6373C10.8204 12.9105 11.4635 13.9773 12.7499 14.8381C14.0543 15.6987 15.9655 16.5056 18.4838 17.2588C23.1216 18.6394 26.5004 20.352 28.62 22.3961C30.7397 24.4402 31.7996 26.9865 31.7996 30.0348C31.7996 33.4239 30.5042 36.0866 27.9136 38.0232C25.3229 39.9419 21.8354 40.9012 17.4511 40.9012C14.4075 40.9012 11.6357 40.3543 9.13555 39.2605C6.63544 38.1487 4.72413 36.6335 3.40161 34.7149C2.09721 32.7963 1.445 30.5728 1.445 28.0445H9.6247C9.6247 32.3659 12.2335 34.5267 17.4511 34.5267C19.3896 34.5267 20.9023 34.1411 21.9894 33.3701C23.0763 32.5811 23.6198 31.4873 23.6198 30.0886ZM46.0121 40.3633H37.8596V1.2013H46.0121V40.3633ZM74.1112 30.0886C74.1112 28.5644 73.5676 27.3989 72.4806 26.592C71.3937 25.7672 69.4371 24.9064 66.6108 24.0099C63.7846 23.0954 61.5472 22.1989 59.8986 21.3203C55.4056 18.9174 53.1592 15.6808 53.1592 11.6104C53.1592 9.49453 53.757 7.61174 54.9527 5.96206C56.1665 4.29445 57.8967 2.99443 60.1431 2.062C62.4078 1.12958 64.944 0.663363 67.7522 0.663363C70.5783 0.663363 73.0966 1.1744 75.3068 2.19649C77.5171 3.20064 79.2291 4.62618 80.443 6.47311C81.6749 8.32003 82.2908 10.418 82.2908 12.767H74.1383C74.1383 10.9739 73.5676 9.58419 72.4263 8.59796C71.2849 7.59381 69.6816 7.09173 67.6163 7.09173C65.6235 7.09173 64.0745 7.51312 62.9694 8.35589C61.8643 9.18074 61.3116 10.2745 61.3116 11.6373C61.3116 12.9105 61.9548 13.9773 63.2411 14.8381C64.5455 15.6987 66.4569 16.5056 68.975 17.2588C73.613 18.6394 76.9917 20.352 79.1114 22.3961C81.231 24.4402 82.2908 26.9865 82.2908 30.0348C82.2908 33.4239 80.9955 36.0866 78.4048 38.0232C75.8141 39.9419 72.3266 40.9012 67.9424 40.9012C64.8988 40.9012 62.127 40.3543 59.6269 39.2605C57.1268 38.1487 55.2154 36.6335 53.8929 34.7149C52.5885 32.7963 51.9362 30.5728 51.9362 28.0445H60.116C60.116 32.3659 62.7248 34.5267 67.9424 34.5267C69.8808 34.5267 71.3937 34.1411 72.4806 33.3701C73.5676 32.5811 74.1112 31.4873 74.1112 30.0886ZM119.14 35.4142C117.673 37.1536 115.598 38.5074 112.917 39.4757C110.236 40.426 107.265 40.9012 104.004 40.9012C100.58 40.9012 97.5722 40.166 94.9816 38.6956C92.4089 37.2074 90.4162 35.0556 89.003 32.2404C87.6081 29.4252 86.8925 26.1169 86.8562 22.3154V19.6526C86.8562 15.7436 87.5175 12.3636 88.84 9.51246C90.1807 6.64345 92.101 4.45584 94.6011 2.9496C97.1194 1.42545 100.063 0.663363 103.433 0.663363C108.125 0.663363 111.794 1.7751 114.439 3.99858C117.084 6.20414 118.651 9.4228 119.14 13.6546H111.205C110.843 11.4132 110.037 9.77247 108.787 8.73245C107.555 7.69244 105.852 7.17242 103.678 7.17242C100.906 7.17242 98.7952 8.20347 97.3459 10.2656C95.8964 12.3277 95.1628 15.394 95.1446 19.4644V21.9657C95.1446 26.0721 95.9327 29.1741 97.5089 31.2721C99.0851 33.3701 101.395 34.419 104.439 34.419C107.5 34.419 109.683 33.7735 110.988 32.4824V25.7313H103.569V19.7871H119.14V35.4142ZM2.78474 51.28C1.8995 51.0281 1.25438 50.7195 0.849398 50.3541C0.447995 49.9852 0.247292 49.5312 0.247292 48.992C0.247292 48.3818 0.492794 47.8782 0.983792 47.4808C1.47838 47.08 2.11991 46.8796 2.90839 46.8796C3.44597 46.8796 3.92443 46.9824 4.34375 47.1882C4.76667 47.3939 5.0928 47.6777 5.32217 48.0396C5.55513 48.4014 5.67161 48.7969 5.67161 49.2261H4.63405C4.63405 48.7579 4.48353 48.3907 4.18248 48.1246C3.88142 47.8551 3.45673 47.7203 2.90839 47.7203C2.39946 47.7203 2.00164 47.8321 1.71492 48.0555C1.43179 48.2754 1.29023 48.5823 1.29023 48.976C1.29023 49.2917 1.42462 49.5596 1.69342 49.7794C1.9658 49.9958 2.42635 50.1945 3.07504 50.3754C3.72732 50.5564 4.23624 50.7567 4.6018 50.9767C4.97096 51.1931 5.24334 51.4467 5.41895 51.7376C5.59815 52.0285 5.68774 52.3707 5.68774 52.7646C5.68774 53.3924 5.44045 53.8961 4.94586 54.2757C4.45127 54.6517 3.79004 54.8397 2.96214 54.8397C2.42454 54.8397 1.92279 54.7385 1.45688 54.5364C0.990967 54.3307 0.630776 54.0504 0.376315 53.6956C0.125438 53.3409 0 52.9383 0 52.4878H1.03756C1.03756 52.956 1.21138 53.3268 1.55902 53.5999C1.91025 53.8695 2.37795 54.0043 2.96214 54.0043C3.5069 54.0043 3.92443 53.8943 4.21473 53.6744C4.50503 53.4544 4.65018 53.1547 4.65018 52.7751C4.65018 52.3956 4.51579 52.1029 4.24699 51.8972C3.97819 51.6879 3.49077 51.4822 2.78474 51.28ZM7.94026 54.7332H6.94571V48.976H7.94026V54.7332ZM6.86507 47.4489C6.86507 47.2892 6.91346 47.1545 7.01022 47.0445C7.11057 46.9345 7.25751 46.8796 7.45105 46.8796C7.64459 46.8796 7.79153 46.9345 7.89187 47.0445C7.99222 47.1545 8.0424 47.2892 8.0424 47.4489C8.0424 47.6085 7.99222 47.7415 7.89187 47.848C7.79153 47.9544 7.64459 48.0076 7.45105 48.0076C7.25751 48.0076 7.11057 47.9544 7.01022 47.848C6.91346 47.7415 6.86507 47.6085 6.86507 47.4489ZM12.9237 53.2062C12.9237 52.9401 12.8216 52.7344 12.6173 52.5889C12.4166 52.4399 12.0636 52.3123 11.5583 52.2058C11.0565 52.0994 10.6569 51.9717 10.3594 51.8227C10.0655 51.6738 9.84692 51.4964 9.70356 51.2906C9.5638 51.0848 9.4939 50.8401 9.4939 50.5564C9.4939 50.0846 9.69461 49.6854 10.096 49.3591C10.501 49.0328 11.0171 48.8696 11.6443 48.8696C12.3037 48.8696 12.8377 49.0381 13.2463 49.375C13.6585 49.712 13.8646 50.1431 13.8646 50.6681H12.8646C12.8646 50.3984 12.7482 50.1661 12.5152 49.971C12.2858 49.776 11.9955 49.6784 11.6443 49.6784C11.2823 49.6784 10.9992 49.7564 10.7949 49.9125C10.5906 50.0686 10.4885 50.2726 10.4885 50.5244C10.4885 50.7621 10.5834 50.9413 10.7734 51.0618C10.9633 51.1824 11.3056 51.2977 11.8001 51.4077C12.2984 51.5176 12.7015 51.6489 13.0098 51.8014C13.318 51.954 13.5456 52.1384 13.6925 52.3548C13.843 52.5677 13.9183 52.8284 13.9183 53.137C13.9183 53.6513 13.7104 54.0646 13.2947 54.3768C12.879 54.6854 12.3396 54.8397 11.6765 54.8397C11.2106 54.8397 10.7985 54.758 10.4401 54.5949C10.0817 54.4317 9.80033 54.2047 9.59605 53.9138C9.39535 53.6195 9.295 53.3019 9.295 52.9614H10.2895C10.3075 53.2912 10.4401 53.5538 10.6874 53.7489C10.9382 53.9404 11.268 54.0362 11.6765 54.0362C12.0529 54.0362 12.3539 53.9617 12.5797 53.8127C12.8091 53.6602 12.9237 53.458 12.9237 53.2062ZM16.5633 47.5819V48.976H17.6492V49.7369H16.5633V53.3073C16.5633 53.5378 16.6117 53.7117 16.7084 53.8287C16.8052 53.9422 16.9701 53.9989 17.203 53.9989C17.3177 53.9989 17.4754 53.9776 17.676 53.9351V54.7332C17.4145 54.8041 17.16 54.8397 16.9127 54.8397C16.4683 54.8397 16.1332 54.7067 15.9074 54.4406C15.6816 54.1745 15.5687 53.7968 15.5687 53.3073V49.7369H14.5097V48.976H15.5687V47.5819H16.5633ZM21.2296 54.8397C20.4411 54.8397 19.7996 54.5843 19.305 54.0734C18.8104 53.5591 18.5631 52.8727 18.5631 52.0142V51.8334C18.5631 51.2622 18.6724 50.7532 18.891 50.3062C19.1133 49.8557 19.4214 49.5046 19.8157 49.2527C20.2135 48.9974 20.6436 48.8696 21.1059 48.8696C21.8621 48.8696 22.4499 49.1161 22.8692 49.6092C23.2886 50.1023 23.4982 50.8082 23.4982 51.7269V52.1366H19.5576C19.572 52.7042 19.7386 53.1636 20.0576 53.5148C20.3801 53.8624 20.7887 54.0362 21.2833 54.0362C21.6345 54.0362 21.932 53.9653 22.1757 53.8234C22.4195 53.6815 22.6327 53.4935 22.8155 53.2594L23.423 53.7276C22.9355 54.469 22.2044 54.8397 21.2296 54.8397ZM21.1059 49.6784C20.7045 49.6784 20.3677 49.8239 20.0952 50.1147C19.8229 50.402 19.6544 50.8064 19.59 51.3278H22.5037V51.2533C22.475 50.7532 22.3388 50.3666 22.0951 50.0934C21.8513 49.8167 21.5216 49.6784 21.1059 49.6784ZM25.5895 48.976L25.6164 49.6145C26.0429 49.1179 26.618 48.8696 27.342 48.8696C28.1555 48.8696 28.7093 49.1782 29.0032 49.7955C29.1968 49.5187 29.4476 49.2953 29.7559 49.125C30.0676 48.9547 30.435 48.8696 30.8579 48.8696C32.1338 48.8696 32.7825 49.5383 32.8039 50.8756V54.7332H31.8094V50.9341C31.8094 50.5226 31.7144 50.2158 31.5245 50.0135C31.3345 49.8078 31.0156 49.705 30.5676 49.705C30.1984 49.705 29.892 49.815 29.6483 50.0349C29.4046 50.2512 29.2631 50.5439 29.2236 50.9129V54.7332H28.2237V50.9608C28.2237 50.1236 27.8098 49.705 26.9818 49.705C26.3296 49.705 25.8834 49.9799 25.6432 50.5297V54.7332H24.6487V48.976H25.5895ZM37.9004 54.7332C37.8431 54.6197 37.7964 54.4176 37.7606 54.1267C37.2983 54.602 36.7463 54.8397 36.1048 54.8397C35.5313 54.8397 35.0601 54.6801 34.691 54.3608C34.3253 54.038 34.1425 53.63 34.1425 53.137C34.1425 52.5375 34.3719 52.0728 34.8307 51.7429C35.293 51.4095 35.9417 51.2428 36.7768 51.2428H37.7445V50.7905C37.7445 50.4463 37.6405 50.1732 37.4327 49.971C37.2248 49.7653 36.9184 49.6624 36.5134 49.6624C36.1585 49.6624 35.861 49.7511 35.621 49.9284C35.3808 50.1059 35.2608 50.3205 35.2608 50.5723H34.2609C34.2609 50.285 34.363 50.0083 34.5673 49.7422C34.7752 49.4726 35.0547 49.2598 35.4059 49.1037C35.7607 48.9477 36.1496 48.8696 36.5724 48.8696C37.2427 48.8696 37.7678 49.0363 38.1476 49.3698C38.5275 49.6997 38.7247 50.1555 38.739 50.7372V53.387C38.739 53.9156 38.8071 54.3359 38.9433 54.6481V54.7332H37.9004ZM36.2499 53.983C36.5618 53.983 36.8574 53.9031 37.137 53.7435C37.4166 53.5839 37.619 53.3764 37.7445 53.1211V51.9397H36.9649C35.7463 51.9397 35.1372 52.2927 35.1372 52.9987C35.1372 53.3073 35.2411 53.5484 35.449 53.7223C35.6568 53.8961 35.9238 53.983 36.2499 53.983ZM42.7871 51.8068C42.7871 50.9235 42.9985 50.214 43.4215 49.6784C43.8443 49.1391 44.3981 48.8696 45.0826 48.8696C45.7636 48.8696 46.3029 49.1002 46.7007 49.5614V46.5603H47.6954V54.7332H46.7814L46.733 54.1161C46.3352 54.5984 45.7815 54.8397 45.0719 54.8397C44.3981 54.8397 43.8479 54.5666 43.4215 54.0203C42.9985 53.474 42.7871 52.761 42.7871 51.8813V51.8068ZM43.7816 51.9185C43.7816 52.5712 43.9179 53.082 44.1902 53.4508C44.4626 53.8198 44.839 54.0043 45.3192 54.0043C45.9499 54.0043 46.4105 53.724 46.7007 53.1636V50.5191C46.4033 49.9763 45.9464 49.705 45.3299 49.705C44.8425 49.705 44.4626 49.8912 44.1902 50.2637C43.9179 50.6361 43.7816 51.1877 43.7816 51.9185ZM51.6574 54.8397C50.8689 54.8397 50.2274 54.5843 49.7328 54.0734C49.2382 53.5591 48.9909 52.8727 48.9909 52.0142V51.8334C48.9909 51.2622 49.1003 50.7532 49.3189 50.3062C49.541 49.8557 49.8493 49.5046 50.2435 49.2527C50.6413 48.9974 51.0714 48.8696 51.5337 48.8696C52.2899 48.8696 52.8778 49.1161 53.297 49.6092C53.7163 50.1023 53.926 50.8082 53.926 51.7269V52.1366H49.9854C49.9998 52.7042 50.1664 53.1636 50.4855 53.5148C50.808 53.8624 51.2166 54.0362 51.7111 54.0362C52.0623 54.0362 52.3598 53.9653 52.6035 53.8234C52.8473 53.6815 53.0605 53.4935 53.2433 53.2594L53.8508 53.7276C53.3633 54.469 52.6322 54.8397 51.6574 54.8397ZM51.5337 49.6784C51.1323 49.6784 50.7955 49.8239 50.5231 50.1147C50.2506 50.402 50.0822 50.8064 50.0177 51.3278H52.9315V51.2533C52.9028 50.7532 52.7666 50.3666 52.5229 50.0934C52.2792 49.8167 51.9494 49.6784 51.5337 49.6784ZM63.7478 53.7169C63.4826 54.0929 63.1117 54.375 62.6351 54.563C62.1619 54.7474 61.6101 54.8397 60.9793 54.8397C60.3413 54.8397 59.7751 54.6924 59.2805 54.3981C58.7859 54.1 58.4023 53.6779 58.13 53.1316C57.8612 52.5854 57.7232 51.9522 57.7161 51.2321V50.5564C57.7161 49.3893 57.9903 48.4847 58.5386 47.8426C59.0905 47.2006 59.8646 46.8796 60.8609 46.8796C61.6781 46.8796 62.3358 47.0871 62.834 47.5022C63.3321 47.9136 63.6368 48.499 63.7478 49.258H62.7157C62.5221 48.2329 61.9057 47.7203 60.8664 47.7203C60.1747 47.7203 59.6496 47.9615 59.2912 48.4439C58.9364 48.9229 58.7572 49.618 58.7536 50.5297V51.1629C58.7536 52.0321 58.9543 52.7237 59.3557 53.2381C59.7572 53.7489 60.3002 54.0043 60.9846 54.0043C61.3717 54.0043 61.7104 53.9617 62.0006 53.8766C62.291 53.7914 62.5311 53.6478 62.721 53.4456V51.7056H60.9093V50.8756H63.7478V53.7169ZM67.7315 54.8397C66.943 54.8397 66.3014 54.5843 65.8068 54.0734C65.3122 53.5591 65.065 52.8727 65.065 52.0142V51.8334C65.065 51.2622 65.1743 50.7532 65.3929 50.3062C65.6152 49.8557 65.9233 49.5046 66.3176 49.2527C66.7154 48.9974 67.1454 48.8696 67.6078 48.8696C68.364 48.8696 68.9518 49.1161 69.3711 49.6092C69.7905 50.1023 70.0001 50.8082 70.0001 51.7269V52.1366H66.0596C66.0738 52.7042 66.2405 53.1636 66.5595 53.5148C66.882 53.8624 67.2906 54.0362 67.7852 54.0362C68.1364 54.0362 68.4339 53.9653 68.6776 53.8234C68.9213 53.6815 69.1346 53.4935 69.3173 53.2594L69.9248 53.7276C69.4374 54.469 68.7063 54.8397 67.7315 54.8397ZM67.6078 49.6784C67.2064 49.6784 66.8694 49.8239 66.5971 50.1147C66.3248 50.402 66.1563 50.8064 66.0917 51.3278H69.0055V51.2533C68.9768 50.7532 68.8407 50.3666 68.5969 50.0934C68.3533 49.8167 68.0236 49.6784 67.6078 49.6784ZM74.5428 53.2062C74.5428 52.9401 74.4406 52.7344 74.2363 52.5889C74.0356 52.4399 73.6827 52.3123 73.1773 52.2058C72.6756 52.0994 72.2759 51.9717 71.9784 51.8227C71.6845 51.6738 71.4659 51.4964 71.3225 51.2906C71.1828 51.0848 71.1129 50.8401 71.1129 50.5564C71.1129 50.0846 71.3136 49.6854 71.715 49.3591C72.12 49.0328 72.6361 48.8696 73.2633 48.8696C73.9227 48.8696 74.4567 49.0381 74.8653 49.375C75.2775 49.712 75.4836 50.1431 75.4836 50.6681H74.4836C74.4836 50.3984 74.3671 50.1661 74.1342 49.971C73.9048 49.776 73.6145 49.6784 73.2633 49.6784C72.9013 49.6784 72.6182 49.7564 72.4138 49.9125C72.2096 50.0686 72.1075 50.2726 72.1075 50.5244C72.1075 50.7621 72.2025 50.9413 72.3924 51.0618C72.5823 51.1824 72.9245 51.2977 73.4191 51.4077C73.9174 51.5176 74.3205 51.6489 74.6288 51.8014C74.9369 51.954 75.1645 52.1384 75.3115 52.3548C75.462 52.5677 75.5373 52.8284 75.5373 53.137C75.5373 53.6513 75.3294 54.0646 74.9137 54.3768C74.498 54.6854 73.9585 54.8397 73.2955 54.8397C72.8296 54.8397 72.4175 54.758 72.0591 54.5949C71.7006 54.4317 71.4193 54.2047 71.2151 53.9138C71.0144 53.6195 70.914 53.3019 70.914 52.9614H71.9085C71.9265 53.2912 72.0591 53.5538 72.3064 53.7489C72.5572 53.9404 72.8869 54.0362 73.2955 54.0362C73.6719 54.0362 73.9729 53.9617 74.1987 53.8127C74.4281 53.6602 74.5428 53.458 74.5428 53.2062ZM78.1822 47.5819V48.976H79.2682V49.7369H78.1822V53.3073C78.1822 53.5378 78.2306 53.7117 78.3274 53.8287C78.4242 53.9422 78.5891 53.9989 78.822 53.9989C78.9367 53.9989 79.0943 53.9776 79.295 53.9351V54.7332C79.0335 54.8041 78.779 54.8397 78.5317 54.8397C78.0872 54.8397 77.7522 54.7067 77.5264 54.4406C77.3006 54.1745 77.1877 53.7968 77.1877 53.3073V49.7369H76.1287V48.976H77.1877V47.5819H78.1822ZM84.0259 54.7332C83.9686 54.6197 83.922 54.4176 83.8862 54.1267C83.4238 54.602 82.8718 54.8397 82.2303 54.8397C81.6569 54.8397 81.1856 54.6801 80.8165 54.3608C80.4508 54.038 80.2682 53.63 80.2682 53.137C80.2682 52.5375 80.4976 52.0728 80.9562 51.7429C81.4185 51.4095 82.0673 51.2428 82.9023 51.2428H83.87V50.7905C83.87 50.4463 83.766 50.1732 83.5582 49.971C83.3503 49.7653 83.0439 49.6624 82.6389 49.6624C82.2841 49.6624 81.9867 49.7511 81.7465 49.9284C81.5064 50.1059 81.3863 50.3205 81.3863 50.5723H80.3864C80.3864 50.285 80.4885 50.0083 80.6928 49.7422C80.9007 49.4726 81.1803 49.2598 81.5315 49.1037C81.8863 48.9477 82.2751 48.8696 82.6981 48.8696C83.3682 48.8696 83.8933 49.0363 84.2732 49.3698C84.6531 49.6997 84.8502 50.1555 84.8645 50.7372V53.387C84.8645 53.9156 84.9326 54.3359 85.0688 54.6481V54.7332H84.0259ZM82.3755 53.983C82.6873 53.983 82.983 53.9031 83.2625 53.7435C83.5421 53.5839 83.7445 53.3764 83.87 53.1211V51.9397H83.0904C81.872 51.9397 81.2627 52.2927 81.2627 52.9987C81.2627 53.3073 81.3666 53.5484 81.5745 53.7223C81.7823 53.8961 82.0493 53.983 82.3755 53.983ZM84.714 46.7306C84.714 47.1137 84.6029 47.4241 84.3807 47.6618C84.162 47.8994 83.8879 48.0183 83.5582 48.0183C83.4113 48.0183 83.284 48.0006 83.1765 47.965C83.069 47.9295 82.9275 47.8569 82.7518 47.7469C82.5798 47.6369 82.4543 47.5713 82.3755 47.5501C82.3003 47.5251 82.2124 47.5128 82.112 47.5128C81.9651 47.5128 81.8397 47.5696 81.7357 47.683C81.6318 47.793 81.5798 47.9349 81.5798 48.1087L80.9133 48.0714C80.9133 47.692 81.0207 47.378 81.2358 47.1296C81.4544 46.8814 81.7304 46.7572 82.0637 46.7572C82.1891 46.7572 82.302 46.7749 82.4024 46.8104C82.5027 46.8459 82.6389 46.915 82.811 47.0179C82.983 47.1208 83.1138 47.1882 83.2033 47.2201C83.2966 47.252 83.3987 47.268 83.5098 47.268C83.6639 47.268 83.7912 47.2077 83.8915 47.0871C83.9954 46.9665 84.0475 46.8264 84.0475 46.6668L84.714 46.7306ZM86.1602 51.8014C86.1602 51.2374 86.2712 50.7301 86.4935 50.2796C86.7193 49.8291 87.031 49.4815 87.4288 49.2367C87.8303 48.992 88.2873 48.8696 88.7998 48.8696C89.5917 48.8696 90.2315 49.1409 90.719 49.6838C91.21 50.2265 91.4554 50.9483 91.4554 51.8493V51.9185C91.4554 52.479 91.3462 52.9826 91.1276 53.4297C90.9124 53.8731 90.6025 54.2189 90.1975 54.4672C89.7961 54.7155 89.3338 54.8397 88.8105 54.8397C88.0221 54.8397 87.3823 54.5684 86.8913 54.0255C86.4038 53.4828 86.1602 52.7646 86.1602 51.8706V51.8014ZM87.1601 51.9185C87.1601 52.557 87.3088 53.0696 87.6063 53.4562C87.9074 53.8429 88.3088 54.0362 88.8105 54.0362C89.3158 54.0362 89.7172 53.8411 90.0147 53.4508C90.3121 53.0571 90.4609 52.5073 90.4609 51.8014C90.4609 51.17 90.3086 50.6592 90.004 50.269C89.7029 49.8752 89.3015 49.6784 88.7998 49.6784C88.3088 49.6784 87.9127 49.8716 87.6117 50.2583C87.3106 50.645 87.1601 51.1984 87.1601 51.9185ZM95.1917 51.8068C95.1917 50.9235 95.4032 50.214 95.8261 49.6784C96.249 49.1391 96.8028 48.8696 97.4872 48.8696C98.1682 48.8696 98.7076 49.1002 99.1054 49.5614V46.5603H100.1V54.7332H99.1861L99.1377 54.1161C98.7399 54.5984 98.1861 54.8397 97.4765 54.8397C96.8028 54.8397 96.2526 54.5666 95.8261 54.0203C95.4032 53.474 95.1917 52.761 95.1917 51.8813V51.8068ZM96.1863 51.9185C96.1863 52.5712 96.3224 53.082 96.5949 53.4508C96.8672 53.8198 97.2435 54.0043 97.7238 54.0043C98.3546 54.0043 98.8152 53.724 99.1054 53.1636V50.5191C98.8079 49.9763 98.3509 49.705 97.7345 49.705C97.2471 49.705 96.8672 49.8912 96.5949 50.2637C96.3224 50.6361 96.1863 51.1877 96.1863 51.9185ZM104.062 54.8397C103.274 54.8397 102.632 54.5843 102.137 54.0734C101.643 53.5591 101.396 52.8727 101.396 52.0142V51.8334C101.396 51.2622 101.505 50.7532 101.723 50.3062C101.946 49.8557 102.254 49.5046 102.648 49.2527C103.046 48.9974 103.476 48.8696 103.938 48.8696C104.695 48.8696 105.282 49.1161 105.702 49.6092C106.121 50.1023 106.331 50.8082 106.331 51.7269V52.1366H102.39C102.404 52.7042 102.571 53.1636 102.89 53.5148C103.213 53.8624 103.621 54.0362 104.116 54.0362C104.467 54.0362 104.765 53.9653 105.008 53.8234C105.252 53.6815 105.465 53.4935 105.648 53.2594L106.255 53.7276C105.768 54.469 105.037 54.8397 104.062 54.8397ZM103.938 49.6784C103.537 49.6784 103.2 49.8239 102.928 50.1147C102.655 50.402 102.487 50.8064 102.422 51.3278H105.336V51.2533C105.307 50.7532 105.171 50.3666 104.928 50.0934C104.684 49.8167 104.354 49.6784 103.938 49.6784ZM114.798 51.1523H111.406V53.8979H115.346V54.7332H110.373V46.986H115.292V47.8267H111.406V50.3169H114.798V51.1523ZM117.416 48.976L117.448 49.6997C117.893 49.1463 118.473 48.8696 119.19 48.8696C120.419 48.8696 121.04 49.556 121.05 50.9288V54.7332H120.055V50.9235C120.052 50.5085 119.955 50.2016 119.765 50.003C119.579 49.8043 119.287 49.705 118.889 49.705C118.566 49.705 118.283 49.7901 118.039 49.9604C117.796 50.1307 117.606 50.3541 117.47 50.6309V54.7332H116.475V48.976H117.416ZM124.963 54.8397C124.176 54.8397 123.533 54.5843 123.04 54.0734C122.545 53.5591 122.297 52.8727 122.297 52.0142V51.8334C122.297 51.2622 122.407 50.7532 122.626 50.3062C122.847 49.8557 123.156 49.5046 123.55 49.2527C123.948 48.9974 124.378 48.8696 124.84 48.8696C125.596 48.8696 126.184 49.1161 126.604 49.6092C127.022 50.1023 127.232 50.8082 127.232 51.7269V52.1366H123.291C123.306 52.7042 123.473 53.1636 123.792 53.5148C124.114 53.8624 124.523 54.0362 125.018 54.0362C125.369 54.0362 125.666 53.9653 125.909 53.8234C126.154 53.6815 126.367 53.4935 126.549 53.2594L127.157 53.7276C126.669 54.469 125.938 54.8397 124.963 54.8397ZM124.84 49.6784C124.438 49.6784 124.102 49.8239 123.83 50.1147C123.557 50.402 123.388 50.8064 123.324 51.3278H126.237V51.2533C126.209 50.7532 126.073 50.3666 125.83 50.0934C125.585 49.8167 125.256 49.6784 124.84 49.6784ZM131.2 49.8593C131.049 49.8344 130.886 49.8221 130.71 49.8221C130.058 49.8221 129.615 50.097 129.383 50.6468V54.7332H128.388V48.976H129.356L129.372 49.6411C129.698 49.1268 130.161 48.8696 130.759 48.8696C130.952 48.8696 131.1 48.8945 131.2 48.9441V49.8593ZM131.775 51.8068C131.775 50.9093 131.984 50.1963 132.404 49.6677C132.824 49.1357 133.379 48.8696 134.07 48.8696C134.78 48.8696 135.334 49.1179 135.731 49.6145L135.78 48.976H136.688V54.5949C136.688 55.3398 136.464 55.9269 136.017 56.3561C135.573 56.7854 134.974 57 134.221 57C133.801 57 133.391 56.9113 132.99 56.7339C132.589 56.5566 132.282 56.3136 132.07 56.005L132.587 55.4143C133.014 55.9358 133.535 56.1965 134.151 56.1965C134.635 56.1965 135.011 56.0618 135.28 55.7921C135.552 55.5225 135.689 55.1429 135.689 54.6534V54.1586C135.291 54.6127 134.748 54.8397 134.06 54.8397C133.379 54.8397 132.827 54.5684 132.404 54.0255C131.984 53.4828 131.775 52.7432 131.775 51.8068ZM132.775 51.9185C132.775 52.5677 132.91 53.0784 133.178 53.4508C133.447 53.8198 133.823 54.0043 134.307 54.0043C134.934 54.0043 135.395 53.7223 135.689 53.1583V50.5297C135.384 49.9799 134.927 49.705 134.318 49.705C133.834 49.705 133.455 49.8912 133.183 50.2637C132.911 50.6361 132.775 51.1877 132.775 51.9185ZM139.275 54.7332H138.28V48.976H139.275V54.7332ZM138.199 47.4489C138.199 47.2892 138.248 47.1545 138.345 47.0445C138.445 46.9345 138.591 46.8796 138.785 46.8796C138.979 46.8796 139.126 46.9345 139.227 47.0445C139.327 47.1545 139.377 47.2892 139.377 47.4489C139.377 47.6085 139.327 47.7415 139.227 47.848C139.126 47.9544 138.979 48.0076 138.785 48.0076C138.591 48.0076 138.445 47.9544 138.345 47.848C138.248 47.7415 138.199 47.6085 138.199 47.4489ZM144.462 54.7332C144.405 54.6197 144.359 54.4176 144.323 54.1267C143.86 54.602 143.309 54.8397 142.666 54.8397C142.093 54.8397 141.622 54.6801 141.253 54.3608C140.888 54.038 140.705 53.63 140.705 53.137C140.705 52.5375 140.934 52.0728 141.392 51.7429C141.854 51.4095 142.504 51.2428 143.339 51.2428H144.307V50.7905C144.307 50.4463 144.203 50.1732 143.995 49.971C143.787 49.7653 143.48 49.6624 143.075 49.6624C142.721 49.6624 142.423 49.7511 142.182 49.9284C141.943 50.1059 141.823 50.3205 141.823 50.5723H140.822C140.822 50.285 140.925 50.0083 141.13 49.7422C141.337 49.4726 141.616 49.2598 141.968 49.1037C142.323 48.9477 142.711 48.8696 143.134 48.8696C143.805 48.8696 144.33 49.0363 144.71 49.3698C145.09 49.6997 145.287 50.1555 145.301 50.7372V53.387C145.301 53.9156 145.369 54.3359 145.505 54.6481V54.7332H144.462ZM142.811 53.983C143.124 53.983 143.419 53.9031 143.698 53.7435C143.979 53.5839 144.181 53.3764 144.307 53.1211V51.9397H143.526C142.308 51.9397 141.7 52.2927 141.7 52.9987C141.7 53.3073 141.802 53.5484 142.01 53.7223C142.219 53.8961 142.486 53.983 142.811 53.983ZM154.171 51.1523H150.778V53.8979H154.719V54.7332H149.746V46.986H154.666V47.8267H150.778V50.3169H154.171V51.1523ZM156.929 54.7332H155.935V46.5603H156.929V54.7332ZM160.939 54.8397C160.151 54.8397 159.509 54.5843 159.015 54.0734C158.52 53.5591 158.272 52.8727 158.272 52.0142V51.8334C158.272 51.2622 158.383 50.7532 158.6 50.3062C158.823 49.8557 159.131 49.5046 159.526 49.2527C159.924 48.9974 160.353 48.8696 160.816 48.8696C161.572 48.8696 162.16 49.1161 162.58 49.6092C162.998 50.1023 163.208 50.8082 163.208 51.7269V52.1366H159.267C159.282 52.7042 159.448 53.1636 159.768 53.5148C160.09 53.8624 160.499 54.0362 160.993 54.0362C161.344 54.0362 161.642 53.9653 161.885 53.8234C162.13 53.6815 162.343 53.4935 162.525 53.2594L163.133 53.7276C162.645 54.469 161.914 54.8397 160.939 54.8397ZM160.816 49.6784C160.414 49.6784 160.078 49.8239 159.805 50.1147C159.533 50.402 159.364 50.8064 159.3 51.3278H162.213V51.2533C162.185 50.7532 162.049 50.3666 161.805 50.0934C161.561 49.8167 161.232 49.6784 160.816 49.6784ZM161.3 46.5603H162.503L161.064 48.1246H160.262L161.3 46.5603ZM165.713 47.5819V48.976H166.8V49.7369H165.713V53.3073C165.713 53.5378 165.762 53.7117 165.858 53.8287C165.955 53.9422 166.12 53.9989 166.353 53.9989C166.468 53.9989 166.626 53.9776 166.826 53.9351V54.7332C166.565 54.8041 166.31 54.8397 166.063 54.8397C165.619 54.8397 165.284 54.7067 165.057 54.4406C164.831 54.1745 164.719 53.7968 164.719 53.3073V49.7369H163.66V48.976H164.719V47.5819H165.713ZM170.778 49.8593C170.627 49.8344 170.463 49.8221 170.288 49.8221C169.636 49.8221 169.193 50.097 168.961 50.6468V54.7332H167.966V48.976H168.934L168.95 49.6411C169.275 49.1268 169.739 48.8696 170.336 48.8696C170.53 48.8696 170.677 48.8945 170.778 48.9441V49.8593ZM172.778 54.7332H171.783V48.976H172.778V54.7332ZM171.702 47.4489C171.702 47.2892 171.751 47.1545 171.847 47.0445C171.948 46.9345 172.094 46.8796 172.288 46.8796C172.481 46.8796 172.629 46.9345 172.729 47.0445C172.83 47.1545 172.879 47.2892 172.879 47.4489C172.879 47.6085 172.83 47.7415 172.729 47.848C172.629 47.9544 172.481 48.0076 172.288 48.0076C172.094 48.0076 171.948 47.9544 171.847 47.848C171.751 47.7415 171.702 47.6085 171.702 47.4489ZM176.707 54.0362C177.062 54.0362 177.372 53.9298 177.637 53.7169C177.903 53.5041 178.049 53.2381 178.078 52.9188H179.018C179.001 53.2487 178.886 53.5627 178.675 53.8606C178.463 54.1586 178.18 54.3963 177.825 54.5736C177.474 54.751 177.102 54.8397 176.707 54.8397C175.915 54.8397 175.285 54.5789 174.815 54.0575C174.349 53.5325 174.116 52.8159 174.116 51.9079V51.7429C174.116 51.1824 174.22 50.684 174.428 50.2477C174.636 49.8114 174.933 49.4726 175.32 49.2315C175.71 48.9902 176.171 48.8696 176.701 48.8696C177.354 48.8696 177.896 49.063 178.325 49.4495C178.759 49.8362 178.99 50.3382 179.018 50.9554H178.078C178.049 50.583 177.906 50.2778 177.648 50.0403C177.393 49.799 177.078 49.6784 176.701 49.6784C176.197 49.6784 175.804 49.8593 175.524 50.2211C175.248 50.5794 175.11 51.0991 175.11 51.7801V51.9664C175.11 52.6297 175.248 53.1406 175.524 53.4987C175.8 53.857 176.194 54.0362 176.707 54.0362ZM183.728 54.7332C183.67 54.6197 183.624 54.4176 183.588 54.1267C183.126 54.602 182.574 54.8397 181.933 54.8397C181.359 54.8397 180.888 54.6801 180.519 54.3608C180.153 54.038 179.97 53.63 179.97 53.137C179.97 52.5375 180.199 52.0728 180.659 51.7429C181.121 51.4095 181.77 51.2428 182.604 51.2428H183.572V50.7905C183.572 50.4463 183.468 50.1732 183.26 49.971C183.052 49.7653 182.746 49.6624 182.341 49.6624C181.986 49.6624 181.689 49.7511 181.449 49.9284C181.208 50.1059 181.088 50.3205 181.088 50.5723H180.089C180.089 50.285 180.191 50.0083 180.395 49.7422C180.603 49.4726 180.883 49.2598 181.234 49.1037C181.588 48.9477 181.978 48.8696 182.4 48.8696C183.07 48.8696 183.595 49.0363 183.975 49.3698C184.355 49.6997 184.552 50.1555 184.567 50.7372V53.387C184.567 53.9156 184.635 54.3359 184.771 54.6481V54.7332H183.728ZM182.078 53.983C182.389 53.983 182.685 53.9031 182.965 53.7435C183.244 53.5839 183.446 53.3764 183.572 53.1211V51.9397H182.793C181.574 51.9397 180.965 52.2927 180.965 52.9987C180.965 53.3073 181.069 53.5484 181.277 53.7223C181.484 53.8961 181.751 53.983 182.078 53.983Z" fill="white"/>
<path d="M126.926 4.76077L153.055 0L154.161 6.47991L128.031 11.2407L126.926 4.76077ZM126.926 19.0172L153.055 14.2565L154.161 20.7364L128.031 25.4971L126.926 19.0172ZM126.926 34.3703L153.055 29.6095L154.161 36.0894L128.031 40.8502L126.926 34.3703ZM158.765 4.76077L184.894 0L186 6.47991L159.871 11.2407L158.765 4.76077ZM158.765 19.0172L184.894 14.2565L186 20.7364L159.871 25.4971L158.765 19.0172ZM158.765 34.3703L184.894 29.6095L186 36.0894L159.871 40.8502L158.765 34.3703Z" fill="#8DC73F"/>
</svg>
