<svg width="377" height="179" fill="none" xmlns="http://www.w3.org/2000/svg"><path opacity=".5" d="M184 145.592v1h1v-1h-1Zm0-23.933h1v-1h-1v1Zm-80 23.933v-1h-.926l-.071.923.997.077Zm28 0 .997-.077-.071-.923H132v1Zm2 25.926v1h1.08l-.083-1.077-.997.077Zm-32 0-.997-.077-.083 1.077H102v-1Zm46 5.983v1h1v-1h-1Zm-60 0h-1v1h1v-1Zm86-8.974v-1h-1v1h1Zm168 0h1v-1h-1v1Zm-95 0v-1h-1v1h1Zm22 0h1v-1h-1v1ZM376 178v1h1v-1h-1Zm-24 0h-1v1h1v-1ZM11 100.718v-1h-1v1h1Zm20 0h1v-1h-1v1ZM19 2h199V0H19v2Zm165 142.592H41v2h143v-2ZM14 5v95.22h2V5h-2Zm170 115.659H41v2h143v-2ZM221 5v64.806h2V5h-2Zm-3-3a3 3 0 0 1 3 3h2a5 5 0 0 0-5-5v2ZM19 0a5 5 0 0 0-5 5h2a3 3 0 0 1 3-3V0Zm10 11.972h179v-2H29v2Zm182 3v54.335h2V14.972h-2Zm-3-3a3 3 0 0 1 3 3h2a5 5 0 0 0-5-5v2Zm-179-2a5 5 0 0 0-5 5h2a3 3 0 0 1 3-3v-2Zm93 122.656a3.993 3.993 0 0 1-4 3.986v2c3.311 0 6-2.677 6-5.986h-2Zm-4 3.986c-2.212 0-4-1.787-4-3.986h-2c0 3.309 2.689 5.986 6 5.986v-2Zm-4-3.986a3.993 3.993 0 0 1 4-3.986v-2c-3.311 0-6 2.678-6 5.986h2Zm4-3.986c2.212 0 4 1.787 4 3.986h2c0-3.308-2.689-5.986-6-5.986v2Zm-14 17.95h28v-2h-28v2Zm27.003-.924 2 25.927 1.994-.154-2-25.926-1.994.153Zm2.997 24.85h-32v2h32v-2Zm-31.003 1.077 2-25.927-1.994-.153-2 25.926 1.994.154ZM92 172.518h52v-2H92v2Zm55 3v1.983h2v-1.983h-2Zm1 .983H88v2h60v-2Zm-59 1v-1.983h-2v1.983h2Zm55-4.983a3 3 0 0 1 3 3h2a5 5 0 0 0-5-5v2Zm-52-2a5 5 0 0 0-5 5h2a3 3 0 0 1 3-3v-2Zm96-99.712h140v-2H188v2Zm143 3v90.721h2V73.806h-2Zm-3 93.721H188v2h140v-2Zm-143-3V73.806h-2v90.721h2Zm3 3a3 3 0 0 1-3-3h-2a5 5 0 0 0 5 5v-2Zm143-3a3 3 0 0 1-3 3v2a5 5 0 0 0 5-5h-2Zm-3-93.721a3 3 0 0 1 3 3h2a5 5 0 0 0-5-5v2Zm-140-2a5 5 0 0 0-5 5h2a3 3 0 0 1 3-3v-2Zm6 7.983h128v-2H194v2Zm131 3v78.755h2V79.789h-2Zm-3 81.755H194v2h128v-2Zm-131-3V79.789h-2v78.755h2Zm3 3a3 3 0 0 1-3-3h-2a5 5 0 0 0 5 5v-2Zm131-3a3 3 0 0 1-3 3v2a5 5 0 0 0 5-5h-2Zm-3-81.755a3 3 0 0 1 3 3h2a5 5 0 0 0-5-5v2Zm-128-2a5 5 0 0 0-5 5h2a3 3 0 0 1 3-3v-2Zm-20 94.738h168v-2H174v2Zm167-1v4.974h2v-4.974h-2Zm-3 7.974H178v2h160v-2Zm-163-3v-4.974h-2v4.974h2Zm3 3a3 3 0 0 1-3-3h-2a5 5 0 0 0 5 5v-2Zm163-3a3 3 0 0 1-3 3v2a5 5 0 0 0 5-5h-2Zm-73-4.974v.986h2v-.986h-2Zm-3 3.986h-14v2h14v-2Zm-17-3v-.986h-2v.986h2Zm3 3a3 3 0 0 1-3-3h-2a5 5 0 0 0 5 5v-2Zm17-3a3 3 0 0 1-3 3v2a5 5 0 0 0 5-5h-2ZM376 177H364v2H376v-2Zm-12 0h-12v2H364v-2Zm-11 1c0-6.368 4.96-11.465 11-11.465v-2c-7.215 0-13 6.065-13 13.465h2Zm11-11.465c6.04 0 11 5.097 11 11.465h2c0-7.4-5.785-13.465-13-13.465v2Zm-1-1v2.992h2v-2.992h-2ZM5 101.718h32v-2H5v2Zm32 74.783H5v2h32v-2Zm-32 0a3 3 0 0 1-3-3H0a5 5 0 0 0 5 5v-2Zm32 2a5 5 0 0 0 5-5h-2a3 3 0 0 1-3 3v2Zm0-76.783a3 3 0 0 1 3 3h2a5 5 0 0 0-5-5v2Zm-32-2a5 5 0 0 0-5 5h2a3 3 0 0 1 3-3v-2Zm6 2h20v-2H11v2Zm19-1v.989h2v-.989h-2Zm-2 2.989H14v2h14v-2Zm-16-2v-.989h-2v.989h2Zm2 2a2 2 0 0 1-2-2h-2a4 4 0 0 0 4 4v-2Zm16-2a2 2 0 0 1-2 2v2a4 4 0 0 0 4-4h-2Zm153 19.952v23.933h2v-23.933h-2ZM26 100.22V14.972h-2v85.248h2Zm221 69.307h22v-2h-22v2ZM2 173.501v-68.783H0v68.783h2Zm38-68.783v68.783h2v-68.783h-2Z" fill="#9D9DF4"/></svg>