<svg width="377" height="179" viewBox="0 0 377 179" fill="none" xmlns="http://www.w3.org/2000/svg">
<path opacity="0.5" d="M184 145.592V146.592H185V145.592H184ZM184 121.659H185V120.659H184V121.659ZM104 145.592V144.592H103.074L103.003 145.515L104 145.592ZM132 145.592L132.997 145.515L132.926 144.592H132V145.592ZM134 171.518V172.518H135.08L134.997 171.441L134 171.518ZM102 171.518L101.003 171.441L100.92 172.518H102V171.518ZM148 177.501V178.501H149V177.501H148ZM88 177.501H87V178.501H88V177.501ZM174 168.527V167.527H173V168.527H174ZM342 168.527H343V167.527H342V168.527ZM247 168.527V167.527H246V168.527H247ZM269 168.527H270V167.527H269V168.527ZM376 178V179H377V178H376ZM352 178H351V179H352V178ZM11 100.718V99.7183H10V100.718H11ZM31 100.718H32V99.7183H31V100.718ZM19 2H218V0H19V2ZM184 144.592H41V146.592H184V144.592ZM14 5V100.22H16V5H14ZM184 120.659H41V122.659H184V120.659ZM221 5V69.8056H223V5H221ZM218 2C219.657 2 221 3.34315 221 5H223C223 2.23858 220.761 0 218 0V2ZM19 0C16.2386 0 14 2.23858 14 5H16C16 3.34315 17.3431 2 19 2V0ZM29 11.9718H208V9.97183H29V11.9718ZM211 14.9718V69.307H213V14.9718H211ZM208 11.9718C209.657 11.9718 211 13.315 211 14.9718H213C213 12.2104 210.761 9.97183 208 9.97183V11.9718ZM29 9.97183C26.2386 9.97183 24 12.2104 24 14.9718H26C26 13.315 27.3431 11.9718 29 11.9718V9.97183ZM122 132.628C122 134.827 120.212 136.614 118 136.614V138.614C121.311 138.614 124 135.937 124 132.628H122ZM118 136.614C115.788 136.614 114 134.827 114 132.628H112C112 135.937 114.689 138.614 118 138.614V136.614ZM114 132.628C114 130.429 115.788 128.642 118 128.642V126.642C114.689 126.642 112 129.32 112 132.628H114ZM118 128.642C120.212 128.642 122 130.429 122 132.628H124C124 129.32 121.311 126.642 118 126.642V128.642ZM104 146.592H132V144.592H104V146.592ZM131.003 145.668L133.003 171.595L134.997 171.441L132.997 145.515L131.003 145.668ZM134 170.518H102V172.518H134V170.518ZM102.997 171.595L104.997 145.668L103.003 145.515L101.003 171.441L102.997 171.595ZM92 172.518H144V170.518H92V172.518ZM147 175.518V177.501H149V175.518H147ZM148 176.501H88V178.501H148V176.501ZM89 177.501V175.518H87V177.501H89ZM144 172.518C145.657 172.518 147 173.861 147 175.518H149C149 172.757 146.761 170.518 144 170.518V172.518ZM92 170.518C89.2386 170.518 87 172.757 87 175.518H89C89 173.861 90.3431 172.518 92 172.518V170.518ZM188 70.8057H328V68.8057H188V70.8057ZM331 73.8057V164.527H333V73.8057H331ZM328 167.527H188V169.527H328V167.527ZM185 164.527V73.8057H183V164.527H185ZM188 167.527C186.343 167.527 185 166.184 185 164.527H183C183 167.288 185.239 169.527 188 169.527V167.527ZM331 164.527C331 166.184 329.657 167.527 328 167.527V169.527C330.761 169.527 333 167.288 333 164.527H331ZM328 70.8057C329.657 70.8057 331 72.1488 331 73.8057H333C333 71.0442 330.761 68.8057 328 68.8057V70.8057ZM188 68.8057C185.239 68.8057 183 71.0442 183 73.8057H185C185 72.1488 186.343 70.8057 188 70.8057V68.8057ZM194 76.7888H322V74.7888H194V76.7888ZM325 79.7888V158.544H327V79.7888H325ZM322 161.544H194V163.544H322V161.544ZM191 158.544V79.7888H189V158.544H191ZM194 161.544C192.343 161.544 191 160.201 191 158.544H189C189 161.305 191.239 163.544 194 163.544V161.544ZM325 158.544C325 160.201 323.657 161.544 322 161.544V163.544C324.761 163.544 327 161.305 327 158.544H325ZM322 76.7888C323.657 76.7888 325 78.1319 325 79.7888H327C327 77.0273 324.761 74.7888 322 74.7888V76.7888ZM194 74.7888C191.239 74.7888 189 77.0273 189 79.7888H191C191 78.1319 192.343 76.7888 194 76.7888V74.7888ZM174 169.527H342V167.527H174V169.527ZM341 168.527V173.501H343V168.527H341ZM338 176.501H178V178.501H338V176.501ZM175 173.501V168.527H173V173.501H175ZM178 176.501C176.343 176.501 175 175.158 175 173.501H173C173 176.263 175.239 178.501 178 178.501V176.501ZM341 173.501C341 175.158 339.657 176.501 338 176.501V178.501C340.761 178.501 343 176.263 343 173.501H341ZM268 168.527V169.513H270V168.527H268ZM265 172.513H251V174.513H265V172.513ZM248 169.513V168.527H246V169.513H248ZM251 172.513C249.343 172.513 248 171.17 248 169.513H246C246 172.274 248.239 174.513 251 174.513V172.513ZM268 169.513C268 171.17 266.657 172.513 265 172.513V174.513C267.761 174.513 270 172.274 270 169.513H268ZM376 177C375.99 177 375.979 177 375.969 177C375.959 177 375.948 177 375.938 177C375.928 177 375.917 177 375.907 177C375.897 177 375.887 177 375.876 177C375.866 177 375.856 177 375.846 177C375.836 177 375.825 177 375.815 177C375.805 177 375.795 177 375.785 177C375.775 177 375.765 177 375.755 177C375.744 177 375.734 177 375.724 177C375.714 177 375.704 177 375.694 177C375.684 177 375.674 177 375.664 177C375.654 177 375.645 177 375.635 177C375.625 177 375.615 177 375.605 177C375.595 177 375.585 177 375.575 177C375.565 177 375.556 177 375.546 177C375.536 177 375.526 177 375.517 177C375.507 177 375.497 177 375.487 177C375.478 177 375.468 177 375.458 177C375.448 177 375.439 177 375.429 177C375.419 177 375.41 177 375.4 177C375.391 177 375.381 177 375.371 177C375.362 177 375.352 177 375.343 177C375.333 177 375.324 177 375.314 177C375.305 177 375.295 177 375.286 177C375.276 177 375.267 177 375.257 177C375.248 177 375.238 177 375.229 177C375.22 177 375.21 177 375.201 177C375.191 177 375.182 177 375.173 177C375.163 177 375.154 177 375.145 177C375.136 177 375.126 177 375.117 177C375.108 177 375.099 177 375.089 177C375.08 177 375.071 177 375.062 177C375.052 177 375.043 177 375.034 177C375.025 177 375.016 177 375.007 177C374.998 177 374.988 177 374.979 177C374.97 177 374.961 177 374.952 177C374.943 177 374.934 177 374.925 177C374.916 177 374.907 177 374.898 177C374.889 177 374.88 177 374.871 177C374.862 177 374.853 177 374.844 177C374.835 177 374.827 177 374.818 177C374.809 177 374.8 177 374.791 177C374.782 177 374.773 177 374.764 177C374.756 177 374.747 177 374.738 177C374.729 177 374.72 177 374.712 177C374.703 177 374.694 177 374.686 177C374.677 177 374.668 177 374.659 177C374.651 177 374.642 177 374.633 177C374.625 177 374.616 177 374.607 177C374.599 177 374.59 177 374.582 177C374.573 177 374.564 177 374.556 177C374.547 177 374.539 177 374.53 177C374.522 177 374.513 177 374.505 177C374.496 177 374.488 177 374.479 177C374.471 177 374.462 177 374.454 177C374.445 177 374.437 177 374.428 177C374.42 177 374.412 177 374.403 177C374.395 177 374.387 177 374.378 177C374.37 177 374.361 177 374.353 177C374.345 177 374.336 177 374.328 177C374.32 177 374.312 177 374.303 177C374.295 177 374.287 177 374.279 177C374.27 177 374.262 177 374.254 177C374.246 177 374.238 177 374.229 177C374.221 177 374.213 177 374.205 177C374.197 177 374.189 177 374.18 177C374.172 177 374.164 177 374.156 177C374.148 177 374.14 177 374.132 177C374.124 177 374.116 177 374.108 177C374.1 177 374.092 177 374.084 177C374.076 177 374.068 177 374.06 177C374.052 177 374.044 177 374.036 177C374.028 177 374.02 177 374.012 177C374.004 177 373.996 177 373.988 177C373.98 177 373.972 177 373.965 177C373.957 177 373.949 177 373.941 177C373.933 177 373.925 177 373.918 177C373.91 177 373.902 177 373.894 177C373.886 177 373.879 177 373.871 177C373.863 177 373.855 177 373.848 177C373.84 177 373.832 177 373.824 177C373.817 177 373.809 177 373.801 177C373.794 177 373.786 177 373.778 177C373.771 177 373.763 177 373.755 177C373.748 177 373.74 177 373.732 177C373.725 177 373.717 177 373.71 177C373.702 177 373.694 177 373.687 177C373.679 177 373.672 177 373.664 177C373.657 177 373.649 177 373.642 177C373.634 177 373.627 177 373.619 177C373.612 177 373.604 177 373.597 177C373.589 177 373.582 177 373.574 177C373.567 177 373.56 177 373.552 177C373.545 177 373.537 177 373.53 177C373.523 177 373.515 177 373.508 177C373.5 177 373.493 177 373.486 177C373.478 177 373.471 177 373.464 177C373.456 177 373.449 177 373.442 177C373.435 177 373.427 177 373.42 177C373.413 177 373.405 177 373.398 177C373.391 177 373.384 177 373.376 177C373.369 177 373.362 177 373.355 177C373.348 177 373.34 177 373.333 177C373.326 177 373.319 177 373.312 177C373.305 177 373.297 177 373.29 177C373.283 177 373.276 177 373.269 177C373.262 177 373.255 177 373.247 177C373.24 177 373.233 177 373.226 177C373.219 177 373.212 177 373.205 177C373.198 177 373.191 177 373.184 177C373.177 177 373.17 177 373.163 177C373.156 177 373.149 177 373.142 177C373.135 177 373.128 177 373.121 177C373.114 177 373.107 177 373.1 177C373.093 177 373.086 177 373.079 177C373.072 177 373.065 177 373.058 177C373.051 177 373.044 177 373.038 177C373.031 177 373.024 177 373.017 177C373.01 177 373.003 177 372.996 177C372.989 177 372.983 177 372.976 177C372.969 177 372.962 177 372.955 177C372.948 177 372.942 177 372.935 177C372.928 177 372.921 177 372.915 177C372.908 177 372.901 177 372.894 177C372.887 177 372.881 177 372.874 177C372.867 177 372.86 177 372.854 177C372.847 177 372.84 177 372.834 177C372.827 177 372.82 177 372.813 177C372.807 177 372.8 177 372.793 177C372.787 177 372.78 177 372.773 177C372.767 177 372.76 177 372.753 177C372.747 177 372.74 177 372.734 177C372.727 177 372.72 177 372.714 177C372.707 177 372.701 177 372.694 177C372.687 177 372.681 177 372.674 177C372.668 177 372.661 177 372.655 177C372.648 177 372.641 177 372.635 177C372.628 177 372.622 177 372.615 177C372.609 177 372.602 177 372.596 177C372.589 177 372.583 177 372.576 177C372.57 177 372.563 177 372.557 177C372.55 177 372.544 177 372.537 177C372.531 177 372.524 177 372.518 177C372.512 177 372.505 177 372.499 177C372.492 177 372.486 177 372.479 177C372.473 177 372.467 177 372.46 177C372.454 177 372.447 177 372.441 177C372.435 177 372.428 177 372.422 177C372.415 177 372.409 177 372.403 177C372.396 177 372.39 177 372.384 177C372.377 177 372.371 177 372.365 177C372.358 177 372.352 177 372.346 177C372.339 177 372.333 177 372.327 177C372.32 177 372.314 177 372.308 177C372.302 177 372.295 177 372.289 177C372.283 177 372.276 177 372.27 177C372.264 177 372.258 177 372.251 177C372.245 177 372.239 177 372.233 177C372.226 177 372.22 177 372.214 177C372.208 177 372.201 177 372.195 177C372.189 177 372.183 177 372.177 177C372.17 177 372.164 177 372.158 177C372.152 177 372.146 177 372.139 177C372.133 177 372.127 177 372.121 177C372.115 177 372.108 177 372.102 177C372.096 177 372.09 177 372.084 177C372.078 177 372.072 177 372.065 177C372.059 177 372.053 177 372.047 177C372.041 177 372.035 177 372.029 177C372.023 177 372.016 177 372.01 177C372.004 177 371.998 177 371.992 177C371.986 177 371.98 177 371.974 177C371.968 177 371.962 177 371.955 177C371.949 177 371.943 177 371.937 177C371.931 177 371.925 177 371.919 177C371.913 177 371.907 177 371.901 177C371.895 177 371.889 177 371.883 177C371.877 177 371.871 177 371.865 177C371.859 177 371.853 177 371.847 177C371.841 177 371.835 177 371.828 177C371.822 177 371.816 177 371.81 177C371.804 177 371.798 177 371.792 177C371.786 177 371.78 177 371.774 177C371.768 177 371.762 177 371.757 177C371.751 177 371.745 177 371.739 177C371.733 177 371.727 177 371.721 177C371.715 177 371.709 177 371.703 177C371.697 177 371.691 177 371.685 177C371.679 177 371.673 177 371.667 177C371.661 177 371.655 177 371.649 177C371.643 177 371.637 177 371.631 177C371.625 177 371.62 177 371.614 177C371.608 177 371.602 177 371.596 177C371.59 177 371.584 177 371.578 177C371.572 177 371.566 177 371.56 177C371.554 177 371.549 177 371.543 177C371.537 177 371.531 177 371.525 177C371.519 177 371.513 177 371.507 177C371.501 177 371.495 177 371.49 177C371.484 177 371.478 177 371.472 177C371.466 177 371.46 177 371.454 177C371.448 177 371.443 177 371.437 177C371.431 177 371.425 177 371.419 177C371.413 177 371.407 177 371.401 177C371.396 177 371.39 177 371.384 177C371.378 177 371.372 177 371.366 177C371.36 177 371.355 177 371.349 177C371.343 177 371.337 177 371.331 177C371.325 177 371.319 177 371.314 177C371.308 177 371.302 177 371.296 177C371.29 177 371.284 177 371.279 177C371.273 177 371.267 177 371.261 177C371.255 177 371.249 177 371.243 177C371.238 177 371.232 177 371.226 177C371.22 177 371.214 177 371.208 177C371.203 177 371.197 177 371.191 177C371.185 177 371.179 177 371.174 177C371.168 177 371.162 177 371.156 177C371.15 177 371.144 177 371.139 177C371.133 177 371.127 177 371.121 177C371.115 177 371.109 177 371.104 177C371.098 177 371.092 177 371.086 177C371.08 177 371.075 177 371.069 177C371.063 177 371.057 177 371.051 177C371.046 177 371.04 177 371.034 177C371.028 177 371.022 177 371.016 177C371.011 177 371.005 177 370.999 177C370.993 177 370.987 177 370.982 177C370.976 177 370.97 177 370.964 177C370.958 177 370.952 177 370.947 177C370.941 177 370.935 177 370.929 177C370.923 177 370.918 177 370.912 177C370.906 177 370.9 177 370.894 177C370.888 177 370.883 177 370.877 177C370.871 177 370.865 177 370.859 177C370.854 177 370.848 177 370.842 177C370.836 177 370.83 177 370.824 177C370.819 177 370.813 177 370.807 177C370.801 177 370.795 177 370.789 177C370.784 177 370.778 177 370.772 177C370.766 177 370.76 177 370.755 177C370.749 177 370.743 177 370.737 177C370.731 177 370.725 177 370.72 177C370.714 177 370.708 177 370.702 177C370.696 177 370.69 177 370.684 177C370.679 177 370.673 177 370.667 177C370.661 177 370.655 177 370.649 177C370.644 177 370.638 177 370.632 177C370.626 177 370.62 177 370.614 177C370.608 177 370.603 177 370.597 177C370.591 177 370.585 177 370.579 177C370.573 177 370.567 177 370.562 177C370.556 177 370.55 177 370.544 177C370.538 177 370.532 177 370.526 177C370.52 177 370.515 177 370.509 177C370.503 177 370.497 177 370.491 177C370.485 177 370.479 177 370.473 177C370.467 177 370.462 177 370.456 177C370.45 177 370.444 177 370.438 177C370.432 177 370.426 177 370.42 177C370.414 177 370.408 177 370.403 177C370.397 177 370.391 177 370.385 177C370.379 177 370.373 177 370.367 177C370.361 177 370.355 177 370.349 177C370.343 177 370.337 177 370.331 177C370.326 177 370.32 177 370.314 177C370.308 177 370.302 177 370.296 177C370.29 177 370.284 177 370.278 177C370.272 177 370.266 177 370.26 177C370.254 177 370.248 177 370.242 177C370.236 177 370.23 177 370.224 177C370.218 177 370.212 177 370.206 177C370.2 177 370.194 177 370.188 177C370.182 177 370.176 177 370.17 177C370.164 177 370.158 177 370.152 177C370.146 177 370.14 177 370.134 177C370.128 177 370.122 177 370.116 177C370.11 177 370.104 177 370.098 177C370.092 177 370.086 177 370.08 177C370.074 177 370.068 177 370.062 177C370.056 177 370.05 177 370.044 177C370.037 177 370.031 177 370.025 177C370.019 177 370.013 177 370.007 177C370.001 177 369.995 177 369.989 177C369.983 177 369.977 177 369.971 177C369.964 177 369.958 177 369.952 177C369.946 177 369.94 177 369.934 177C369.928 177 369.922 177 369.915 177C369.909 177 369.903 177 369.897 177C369.891 177 369.885 177 369.879 177C369.872 177 369.866 177 369.86 177C369.854 177 369.848 177 369.842 177C369.835 177 369.829 177 369.823 177C369.817 177 369.811 177 369.804 177C369.798 177 369.792 177 369.786 177C369.78 177 369.773 177 369.767 177C369.761 177 369.755 177 369.748 177C369.742 177 369.736 177 369.73 177C369.723 177 369.717 177 369.711 177C369.705 177 369.698 177 369.692 177C369.686 177 369.68 177 369.673 177C369.667 177 369.661 177 369.654 177C369.648 177 369.642 177 369.635 177C369.629 177 369.623 177 369.616 177C369.61 177 369.604 177 369.597 177C369.591 177 369.585 177 369.578 177C369.572 177 369.566 177 369.559 177C369.553 177 369.547 177 369.54 177C369.534 177 369.527 177 369.521 177C369.515 177 369.508 177 369.502 177C369.495 177 369.489 177 369.483 177C369.476 177 369.47 177 369.463 177C369.457 177 369.45 177 369.444 177C369.437 177 369.431 177 369.424 177C369.418 177 369.411 177 369.405 177C369.399 177 369.392 177 369.386 177C369.379 177 369.373 177 369.366 177C369.359 177 369.353 177 369.346 177C369.34 177 369.333 177 369.327 177C369.32 177 369.314 177 369.307 177C369.301 177 369.294 177 369.287 177C369.281 177 369.274 177 369.268 177C369.261 177 369.254 177 369.248 177C369.241 177 369.235 177 369.228 177C369.221 177 369.215 177 369.208 177C369.201 177 369.195 177 369.188 177C369.181 177 369.175 177 369.168 177C369.161 177 369.155 177 369.148 177C369.141 177 369.134 177 369.128 177C369.121 177 369.114 177 369.108 177C369.101 177 369.094 177 369.087 177C369.081 177 369.074 177 369.067 177C369.06 177 369.053 177 369.047 177C369.04 177 369.033 177 369.026 177C369.019 177 369.013 177 369.006 177C368.999 177 368.992 177 368.985 177C368.978 177 368.972 177 368.965 177C368.958 177 368.951 177 368.944 177C368.937 177 368.93 177 368.923 177C368.916 177 368.91 177 368.903 177C368.896 177 368.889 177 368.882 177C368.875 177 368.868 177 368.861 177C368.854 177 368.847 177 368.84 177C368.833 177 368.826 177 368.819 177C368.812 177 368.805 177 368.798 177C368.791 177 368.784 177 368.777 177C368.77 177 368.763 177 368.756 177C368.749 177 368.741 177 368.734 177C368.727 177 368.72 177 368.713 177C368.706 177 368.699 177 368.692 177C368.685 177 368.677 177 368.67 177C368.663 177 368.656 177 368.649 177C368.642 177 368.634 177 368.627 177C368.62 177 368.613 177 368.606 177C368.598 177 368.591 177 368.584 177C368.577 177 368.569 177 368.562 177C368.555 177 368.548 177 368.54 177C368.533 177 368.526 177 368.518 177C368.511 177 368.504 177 368.496 177C368.489 177 368.482 177 368.474 177C368.467 177 368.46 177 368.452 177C368.445 177 368.437 177 368.43 177C368.423 177 368.415 177 368.408 177C368.4 177 368.393 177 368.385 177C368.378 177 368.371 177 368.363 177C368.356 177 368.348 177 368.341 177C368.333 177 368.326 177 368.318 177C368.311 177 368.303 177 368.295 177C368.288 177 368.28 177 368.273 177C368.265 177 368.258 177 368.25 177C368.242 177 368.235 177 368.227 177C368.22 177 368.212 177 368.204 177C368.197 177 368.189 177 368.181 177C368.174 177 368.166 177 368.158 177C368.15 177 368.143 177 368.135 177C368.127 177 368.12 177 368.112 177C368.104 177 368.096 177 368.088 177C368.081 177 368.073 177 368.065 177C368.057 177 368.049 177 368.042 177C368.034 177 368.026 177 368.018 177C368.01 177 368.002 177 367.994 177C367.987 177 367.979 177 367.971 177C367.963 177 367.955 177 367.947 177C367.939 177 367.931 177 367.923 177C367.915 177 367.907 177 367.899 177C367.891 177 367.883 177 367.875 177C367.867 177 367.859 177 367.851 177C367.843 177 367.835 177 367.827 177C367.819 177 367.811 177 367.802 177C367.794 177 367.786 177 367.778 177C367.77 177 367.762 177 367.754 177C367.746 177 367.737 177 367.729 177C367.721 177 367.713 177 367.704 177C367.696 177 367.688 177 367.68 177C367.672 177 367.663 177 367.655 177C367.647 177 367.638 177 367.63 177C367.622 177 367.613 177 367.605 177C367.597 177 367.588 177 367.58 177C367.572 177 367.563 177 367.555 177C367.546 177 367.538 177 367.53 177C367.521 177 367.513 177 367.504 177C367.496 177 367.487 177 367.479 177C367.47 177 367.462 177 367.453 177C367.445 177 367.436 177 367.428 177C367.419 177 367.411 177 367.402 177C367.393 177 367.385 177 367.376 177C367.367 177 367.359 177 367.35 177C367.342 177 367.333 177 367.324 177C367.316 177 367.307 177 367.298 177C367.289 177 367.281 177 367.272 177C367.263 177 367.254 177 367.246 177C367.237 177 367.228 177 367.219 177C367.21 177 367.202 177 367.193 177C367.184 177 367.175 177 367.166 177C367.157 177 367.148 177 367.139 177C367.131 177 367.122 177 367.113 177C367.104 177 367.095 177 367.086 177C367.077 177 367.068 177 367.059 177C367.05 177 367.041 177 367.032 177C367.023 177 367.014 177 367.005 177C366.996 177 366.986 177 366.977 177C366.968 177 366.959 177 366.95 177C366.941 177 366.932 177 366.922 177C366.913 177 366.904 177 366.895 177C366.886 177 366.876 177 366.867 177C366.858 177 366.849 177 366.839 177C366.83 177 366.821 177 366.811 177C366.802 177 366.793 177 366.783 177C366.774 177 366.765 177 366.755 177C366.746 177 366.737 177 366.727 177C366.718 177 366.708 177 366.699 177C366.689 177 366.68 177 366.67 177C366.661 177 366.651 177 366.642 177C366.632 177 366.623 177 366.613 177C366.604 177 366.594 177 366.584 177C366.575 177 366.565 177 366.556 177C366.546 177 366.536 177 366.527 177C366.517 177 366.507 177 366.497 177C366.488 177 366.478 177 366.468 177C366.458 177 366.449 177 366.439 177C366.429 177 366.419 177 366.409 177C366.4 177 366.39 177 366.38 177C366.37 177 366.36 177 366.35 177C366.34 177 366.33 177 366.321 177C366.311 177 366.301 177 366.291 177C366.281 177 366.271 177 366.261 177C366.251 177 366.241 177 366.231 177C366.22 177 366.21 177 366.2 177C366.19 177 366.18 177 366.17 177C366.16 177 366.15 177 366.139 177C366.129 177 366.119 177 366.109 177C366.099 177 366.088 177 366.078 177C366.068 177 366.058 177 366.047 177C366.037 177 366.027 177 366.016 177C366.006 177 365.996 177 365.985 177C365.975 177 365.965 177 365.954 177C365.944 177 365.933 177 365.923 177C365.912 177 365.902 177 365.892 177C365.881 177 365.87 177 365.86 177C365.849 177 365.839 177 365.828 177C365.818 177 365.807 177 365.797 177C365.786 177 365.775 177 365.765 177C365.754 177 365.743 177 365.733 177C365.722 177 365.711 177 365.7 177C365.69 177 365.679 177 365.668 177C365.657 177 365.647 177 365.636 177C365.625 177 365.614 177 365.603 177C365.592 177 365.581 177 365.571 177C365.56 177 365.549 177 365.538 177C365.527 177 365.516 177 365.505 177C365.494 177 365.483 177 365.472 177C365.461 177 365.45 177 365.439 177C365.428 177 365.416 177 365.405 177C365.394 177 365.383 177 365.372 177C365.361 177 365.35 177 365.338 177C365.327 177 365.316 177 365.305 177C365.293 177 365.282 177 365.271 177C365.259 177 365.248 177 365.237 177C365.225 177 365.214 177 365.203 177C365.191 177 365.18 177 365.169 177C365.157 177 365.146 177 365.134 177C365.123 177 365.111 177 365.1 177C365.088 177 365.077 177 365.065 177C365.053 177 365.042 177 365.03 177C365.019 177 365.007 177 364.995 177C364.984 177 364.972 177 364.96 177C364.949 177 364.937 177 364.925 177C364.913 177 364.902 177 364.89 177C364.878 177 364.866 177 364.854 177C364.843 177 364.831 177 364.819 177C364.807 177 364.795 177 364.783 177C364.771 177 364.759 177 364.747 177C364.735 177 364.723 177 364.711 177C364.699 177 364.687 177 364.675 177C364.663 177 364.651 177 364.639 177C364.627 177 364.615 177 364.602 177C364.59 177 364.578 177 364.566 177C364.554 177 364.541 177 364.529 177C364.517 177 364.505 177 364.492 177C364.48 177 364.468 177 364.455 177C364.443 177 364.431 177 364.418 177C364.406 177 364.393 177 364.381 177C364.368 177 364.356 177 364.343 177C364.331 177 364.318 177 364.306 177C364.293 177 364.281 177 364.268 177C364.256 177 364.243 177 364.23 177C364.218 177 364.205 177 364.192 177C364.18 177 364.167 177 364.154 177C364.141 177 364.129 177 364.116 177C364.103 177 364.09 177 364.077 177C364.065 177 364.052 177 364.039 177C364.026 177 364.013 177 364 177V179C364.013 179 364.026 179 364.039 179C364.052 179 364.065 179 364.077 179C364.09 179 364.103 179 364.116 179C364.129 179 364.141 179 364.154 179C364.167 179 364.18 179 364.192 179C364.205 179 364.218 179 364.23 179C364.243 179 364.256 179 364.268 179C364.281 179 364.293 179 364.306 179C364.318 179 364.331 179 364.343 179C364.356 179 364.368 179 364.381 179C364.393 179 364.406 179 364.418 179C364.431 179 364.443 179 364.455 179C364.468 179 364.48 179 364.492 179C364.505 179 364.517 179 364.529 179C364.541 179 364.554 179 364.566 179C364.578 179 364.59 179 364.602 179C364.615 179 364.627 179 364.639 179C364.651 179 364.663 179 364.675 179C364.687 179 364.699 179 364.711 179C364.723 179 364.735 179 364.747 179C364.759 179 364.771 179 364.783 179C364.795 179 364.807 179 364.819 179C364.831 179 364.843 179 364.854 179C364.866 179 364.878 179 364.89 179C364.902 179 364.913 179 364.925 179C364.937 179 364.949 179 364.96 179C364.972 179 364.984 179 364.995 179C365.007 179 365.019 179 365.03 179C365.042 179 365.053 179 365.065 179C365.077 179 365.088 179 365.1 179C365.111 179 365.123 179 365.134 179C365.146 179 365.157 179 365.169 179C365.18 179 365.191 179 365.203 179C365.214 179 365.225 179 365.237 179C365.248 179 365.259 179 365.271 179C365.282 179 365.293 179 365.305 179C365.316 179 365.327 179 365.338 179C365.35 179 365.361 179 365.372 179C365.383 179 365.394 179 365.405 179C365.416 179 365.428 179 365.439 179C365.45 179 365.461 179 365.472 179C365.483 179 365.494 179 365.505 179C365.516 179 365.527 179 365.538 179C365.549 179 365.56 179 365.571 179C365.581 179 365.592 179 365.603 179C365.614 179 365.625 179 365.636 179C365.647 179 365.657 179 365.668 179C365.679 179 365.69 179 365.7 179C365.711 179 365.722 179 365.733 179C365.743 179 365.754 179 365.765 179C365.775 179 365.786 179 365.797 179C365.807 179 365.818 179 365.828 179C365.839 179 365.849 179 365.86 179C365.87 179 365.881 179 365.892 179C365.902 179 365.912 179 365.923 179C365.933 179 365.944 179 365.954 179C365.965 179 365.975 179 365.985 179C365.996 179 366.006 179 366.016 179C366.027 179 366.037 179 366.047 179C366.058 179 366.068 179 366.078 179C366.088 179 366.099 179 366.109 179C366.119 179 366.129 179 366.139 179C366.15 179 366.16 179 366.17 179C366.18 179 366.19 179 366.2 179C366.21 179 366.22 179 366.231 179C366.241 179 366.251 179 366.261 179C366.271 179 366.281 179 366.291 179C366.301 179 366.311 179 366.321 179C366.33 179 366.34 179 366.35 179C366.36 179 366.37 179 366.38 179C366.39 179 366.4 179 366.409 179C366.419 179 366.429 179 366.439 179C366.449 179 366.458 179 366.468 179C366.478 179 366.488 179 366.497 179C366.507 179 366.517 179 366.527 179C366.536 179 366.546 179 366.556 179C366.565 179 366.575 179 366.584 179C366.594 179 366.604 179 366.613 179C366.623 179 366.632 179 366.642 179C366.651 179 366.661 179 366.67 179C366.68 179 366.689 179 366.699 179C366.708 179 366.718 179 366.727 179C366.737 179 366.746 179 366.755 179C366.765 179 366.774 179 366.783 179C366.793 179 366.802 179 366.811 179C366.821 179 366.83 179 366.839 179C366.849 179 366.858 179 366.867 179C366.876 179 366.886 179 366.895 179C366.904 179 366.913 179 366.922 179C366.932 179 366.941 179 366.95 179C366.959 179 366.968 179 366.977 179C366.986 179 366.996 179 367.005 179C367.014 179 367.023 179 367.032 179C367.041 179 367.05 179 367.059 179C367.068 179 367.077 179 367.086 179C367.095 179 367.104 179 367.113 179C367.122 179 367.131 179 367.139 179C367.148 179 367.157 179 367.166 179C367.175 179 367.184 179 367.193 179C367.202 179 367.21 179 367.219 179C367.228 179 367.237 179 367.246 179C367.254 179 367.263 179 367.272 179C367.281 179 367.289 179 367.298 179C367.307 179 367.316 179 367.324 179C367.333 179 367.342 179 367.35 179C367.359 179 367.367 179 367.376 179C367.385 179 367.393 179 367.402 179C367.411 179 367.419 179 367.428 179C367.436 179 367.445 179 367.453 179C367.462 179 367.47 179 367.479 179C367.487 179 367.496 179 367.504 179C367.513 179 367.521 179 367.53 179C367.538 179 367.546 179 367.555 179C367.563 179 367.572 179 367.58 179C367.588 179 367.597 179 367.605 179C367.613 179 367.622 179 367.63 179C367.638 179 367.647 179 367.655 179C367.663 179 367.672 179 367.68 179C367.688 179 367.696 179 367.704 179C367.713 179 367.721 179 367.729 179C367.737 179 367.746 179 367.754 179C367.762 179 367.77 179 367.778 179C367.786 179 367.794 179 367.802 179C367.811 179 367.819 179 367.827 179C367.835 179 367.843 179 367.851 179C367.859 179 367.867 179 367.875 179C367.883 179 367.891 179 367.899 179C367.907 179 367.915 179 367.923 179C367.931 179 367.939 179 367.947 179C367.955 179 367.963 179 367.971 179C367.979 179 367.987 179 367.994 179C368.002 179 368.01 179 368.018 179C368.026 179 368.034 179 368.042 179C368.049 179 368.057 179 368.065 179C368.073 179 368.081 179 368.088 179C368.096 179 368.104 179 368.112 179C368.12 179 368.127 179 368.135 179C368.143 179 368.15 179 368.158 179C368.166 179 368.174 179 368.181 179C368.189 179 368.197 179 368.204 179C368.212 179 368.22 179 368.227 179C368.235 179 368.242 179 368.25 179C368.258 179 368.265 179 368.273 179C368.28 179 368.288 179 368.295 179C368.303 179 368.311 179 368.318 179C368.326 179 368.333 179 368.341 179C368.348 179 368.356 179 368.363 179C368.371 179 368.378 179 368.385 179C368.393 179 368.4 179 368.408 179C368.415 179 368.423 179 368.43 179C368.437 179 368.445 179 368.452 179C368.46 179 368.467 179 368.474 179C368.482 179 368.489 179 368.496 179C368.504 179 368.511 179 368.518 179C368.526 179 368.533 179 368.54 179C368.548 179 368.555 179 368.562 179C368.569 179 368.577 179 368.584 179C368.591 179 368.598 179 368.606 179C368.613 179 368.62 179 368.627 179C368.634 179 368.642 179 368.649 179C368.656 179 368.663 179 368.67 179C368.677 179 368.685 179 368.692 179C368.699 179 368.706 179 368.713 179C368.72 179 368.727 179 368.734 179C368.741 179 368.749 179 368.756 179C368.763 179 368.77 179 368.777 179C368.784 179 368.791 179 368.798 179C368.805 179 368.812 179 368.819 179C368.826 179 368.833 179 368.84 179C368.847 179 368.854 179 368.861 179C368.868 179 368.875 179 368.882 179C368.889 179 368.896 179 368.903 179C368.91 179 368.916 179 368.923 179C368.93 179 368.937 179 368.944 179C368.951 179 368.958 179 368.965 179C368.972 179 368.978 179 368.985 179C368.992 179 368.999 179 369.006 179C369.013 179 369.019 179 369.026 179C369.033 179 369.04 179 369.047 179C369.053 179 369.06 179 369.067 179C369.074 179 369.081 179 369.087 179C369.094 179 369.101 179 369.108 179C369.114 179 369.121 179 369.128 179C369.134 179 369.141 179 369.148 179C369.155 179 369.161 179 369.168 179C369.175 179 369.181 179 369.188 179C369.195 179 369.201 179 369.208 179C369.215 179 369.221 179 369.228 179C369.235 179 369.241 179 369.248 179C369.254 179 369.261 179 369.268 179C369.274 179 369.281 179 369.287 179C369.294 179 369.301 179 369.307 179C369.314 179 369.32 179 369.327 179C369.333 179 369.34 179 369.346 179C369.353 179 369.359 179 369.366 179C369.373 179 369.379 179 369.386 179C369.392 179 369.399 179 369.405 179C369.411 179 369.418 179 369.424 179C369.431 179 369.437 179 369.444 179C369.45 179 369.457 179 369.463 179C369.47 179 369.476 179 369.483 179C369.489 179 369.495 179 369.502 179C369.508 179 369.515 179 369.521 179C369.527 179 369.534 179 369.54 179C369.547 179 369.553 179 369.559 179C369.566 179 369.572 179 369.578 179C369.585 179 369.591 179 369.597 179C369.604 179 369.61 179 369.616 179C369.623 179 369.629 179 369.635 179C369.642 179 369.648 179 369.654 179C369.661 179 369.667 179 369.673 179C369.68 179 369.686 179 369.692 179C369.698 179 369.705 179 369.711 179C369.717 179 369.723 179 369.73 179C369.736 179 369.742 179 369.748 179C369.755 179 369.761 179 369.767 179C369.773 179 369.78 179 369.786 179C369.792 179 369.798 179 369.804 179C369.811 179 369.817 179 369.823 179C369.829 179 369.835 179 369.842 179C369.848 179 369.854 179 369.86 179C369.866 179 369.872 179 369.879 179C369.885 179 369.891 179 369.897 179C369.903 179 369.909 179 369.915 179C369.922 179 369.928 179 369.934 179C369.94 179 369.946 179 369.952 179C369.958 179 369.964 179 369.971 179C369.977 179 369.983 179 369.989 179C369.995 179 370.001 179 370.007 179C370.013 179 370.019 179 370.025 179C370.031 179 370.037 179 370.044 179C370.05 179 370.056 179 370.062 179C370.068 179 370.074 179 370.08 179C370.086 179 370.092 179 370.098 179C370.104 179 370.11 179 370.116 179C370.122 179 370.128 179 370.134 179C370.14 179 370.146 179 370.152 179C370.158 179 370.164 179 370.17 179C370.176 179 370.182 179 370.188 179C370.194 179 370.2 179 370.206 179C370.212 179 370.218 179 370.224 179C370.23 179 370.236 179 370.242 179C370.248 179 370.254 179 370.26 179C370.266 179 370.272 179 370.278 179C370.284 179 370.29 179 370.296 179C370.302 179 370.308 179 370.314 179C370.32 179 370.326 179 370.331 179C370.337 179 370.343 179 370.349 179C370.355 179 370.361 179 370.367 179C370.373 179 370.379 179 370.385 179C370.391 179 370.397 179 370.403 179C370.408 179 370.414 179 370.42 179C370.426 179 370.432 179 370.438 179C370.444 179 370.45 179 370.456 179C370.462 179 370.467 179 370.473 179C370.479 179 370.485 179 370.491 179C370.497 179 370.503 179 370.509 179C370.515 179 370.52 179 370.526 179C370.532 179 370.538 179 370.544 179C370.55 179 370.556 179 370.562 179C370.567 179 370.573 179 370.579 179C370.585 179 370.591 179 370.597 179C370.603 179 370.608 179 370.614 179C370.62 179 370.626 179 370.632 179C370.638 179 370.644 179 370.649 179C370.655 179 370.661 179 370.667 179C370.673 179 370.679 179 370.684 179C370.69 179 370.696 179 370.702 179C370.708 179 370.714 179 370.72 179C370.725 179 370.731 179 370.737 179C370.743 179 370.749 179 370.755 179C370.76 179 370.766 179 370.772 179C370.778 179 370.784 179 370.789 179C370.795 179 370.801 179 370.807 179C370.813 179 370.819 179 370.824 179C370.83 179 370.836 179 370.842 179C370.848 179 370.854 179 370.859 179C370.865 179 370.871 179 370.877 179C370.883 179 370.888 179 370.894 179C370.9 179 370.906 179 370.912 179C370.918 179 370.923 179 370.929 179C370.935 179 370.941 179 370.947 179C370.952 179 370.958 179 370.964 179C370.97 179 370.976 179 370.982 179C370.987 179 370.993 179 370.999 179C371.005 179 371.011 179 371.016 179C371.022 179 371.028 179 371.034 179C371.04 179 371.046 179 371.051 179C371.057 179 371.063 179 371.069 179C371.075 179 371.08 179 371.086 179C371.092 179 371.098 179 371.104 179C371.109 179 371.115 179 371.121 179C371.127 179 371.133 179 371.139 179C371.144 179 371.15 179 371.156 179C371.162 179 371.168 179 371.174 179C371.179 179 371.185 179 371.191 179C371.197 179 371.203 179 371.208 179C371.214 179 371.22 179 371.226 179C371.232 179 371.238 179 371.243 179C371.249 179 371.255 179 371.261 179C371.267 179 371.273 179 371.279 179C371.284 179 371.29 179 371.296 179C371.302 179 371.308 179 371.314 179C371.319 179 371.325 179 371.331 179C371.337 179 371.343 179 371.349 179C371.355 179 371.36 179 371.366 179C371.372 179 371.378 179 371.384 179C371.39 179 371.396 179 371.401 179C371.407 179 371.413 179 371.419 179C371.425 179 371.431 179 371.437 179C371.443 179 371.448 179 371.454 179C371.46 179 371.466 179 371.472 179C371.478 179 371.484 179 371.49 179C371.495 179 371.501 179 371.507 179C371.513 179 371.519 179 371.525 179C371.531 179 371.537 179 371.543 179C371.549 179 371.554 179 371.56 179C371.566 179 371.572 179 371.578 179C371.584 179 371.59 179 371.596 179C371.602 179 371.608 179 371.614 179C371.62 179 371.625 179 371.631 179C371.637 179 371.643 179 371.649 179C371.655 179 371.661 179 371.667 179C371.673 179 371.679 179 371.685 179C371.691 179 371.697 179 371.703 179C371.709 179 371.715 179 371.721 179C371.727 179 371.733 179 371.739 179C371.745 179 371.751 179 371.757 179C371.762 179 371.768 179 371.774 179C371.78 179 371.786 179 371.792 179C371.798 179 371.804 179 371.81 179C371.816 179 371.822 179 371.828 179C371.835 179 371.841 179 371.847 179C371.853 179 371.859 179 371.865 179C371.871 179 371.877 179 371.883 179C371.889 179 371.895 179 371.901 179C371.907 179 371.913 179 371.919 179C371.925 179 371.931 179 371.937 179C371.943 179 371.949 179 371.955 179C371.962 179 371.968 179 371.974 179C371.98 179 371.986 179 371.992 179C371.998 179 372.004 179 372.01 179C372.016 179 372.023 179 372.029 179C372.035 179 372.041 179 372.047 179C372.053 179 372.059 179 372.065 179C372.072 179 372.078 179 372.084 179C372.09 179 372.096 179 372.102 179C372.108 179 372.115 179 372.121 179C372.127 179 372.133 179 372.139 179C372.146 179 372.152 179 372.158 179C372.164 179 372.17 179 372.177 179C372.183 179 372.189 179 372.195 179C372.201 179 372.208 179 372.214 179C372.22 179 372.226 179 372.233 179C372.239 179 372.245 179 372.251 179C372.258 179 372.264 179 372.27 179C372.276 179 372.283 179 372.289 179C372.295 179 372.302 179 372.308 179C372.314 179 372.32 179 372.327 179C372.333 179 372.339 179 372.346 179C372.352 179 372.358 179 372.365 179C372.371 179 372.377 179 372.384 179C372.39 179 372.396 179 372.403 179C372.409 179 372.415 179 372.422 179C372.428 179 372.435 179 372.441 179C372.447 179 372.454 179 372.46 179C372.467 179 372.473 179 372.479 179C372.486 179 372.492 179 372.499 179C372.505 179 372.512 179 372.518 179C372.524 179 372.531 179 372.537 179C372.544 179 372.55 179 372.557 179C372.563 179 372.57 179 372.576 179C372.583 179 372.589 179 372.596 179C372.602 179 372.609 179 372.615 179C372.622 179 372.628 179 372.635 179C372.641 179 372.648 179 372.655 179C372.661 179 372.668 179 372.674 179C372.681 179 372.687 179 372.694 179C372.701 179 372.707 179 372.714 179C372.72 179 372.727 179 372.734 179C372.74 179 372.747 179 372.753 179C372.76 179 372.767 179 372.773 179C372.78 179 372.787 179 372.793 179C372.8 179 372.807 179 372.813 179C372.82 179 372.827 179 372.834 179C372.84 179 372.847 179 372.854 179C372.86 179 372.867 179 372.874 179C372.881 179 372.887 179 372.894 179C372.901 179 372.908 179 372.915 179C372.921 179 372.928 179 372.935 179C372.942 179 372.948 179 372.955 179C372.962 179 372.969 179 372.976 179C372.983 179 372.989 179 372.996 179C373.003 179 373.01 179 373.017 179C373.024 179 373.031 179 373.038 179C373.044 179 373.051 179 373.058 179C373.065 179 373.072 179 373.079 179C373.086 179 373.093 179 373.1 179C373.107 179 373.114 179 373.121 179C373.128 179 373.135 179 373.142 179C373.149 179 373.156 179 373.163 179C373.17 179 373.177 179 373.184 179C373.191 179 373.198 179 373.205 179C373.212 179 373.219 179 373.226 179C373.233 179 373.24 179 373.247 179C373.255 179 373.262 179 373.269 179C373.276 179 373.283 179 373.29 179C373.297 179 373.305 179 373.312 179C373.319 179 373.326 179 373.333 179C373.34 179 373.348 179 373.355 179C373.362 179 373.369 179 373.376 179C373.384 179 373.391 179 373.398 179C373.405 179 373.413 179 373.42 179C373.427 179 373.435 179 373.442 179C373.449 179 373.456 179 373.464 179C373.471 179 373.478 179 373.486 179C373.493 179 373.5 179 373.508 179C373.515 179 373.523 179 373.53 179C373.537 179 373.545 179 373.552 179C373.56 179 373.567 179 373.574 179C373.582 179 373.589 179 373.597 179C373.604 179 373.612 179 373.619 179C373.627 179 373.634 179 373.642 179C373.649 179 373.657 179 373.664 179C373.672 179 373.679 179 373.687 179C373.694 179 373.702 179 373.71 179C373.717 179 373.725 179 373.732 179C373.74 179 373.748 179 373.755 179C373.763 179 373.771 179 373.778 179C373.786 179 373.794 179 373.801 179C373.809 179 373.817 179 373.824 179C373.832 179 373.84 179 373.848 179C373.855 179 373.863 179 373.871 179C373.879 179 373.886 179 373.894 179C373.902 179 373.91 179 373.918 179C373.925 179 373.933 179 373.941 179C373.949 179 373.957 179 373.965 179C373.972 179 373.98 179 373.988 179C373.996 179 374.004 179 374.012 179C374.02 179 374.028 179 374.036 179C374.044 179 374.052 179 374.06 179C374.068 179 374.076 179 374.084 179C374.092 179 374.1 179 374.108 179C374.116 179 374.124 179 374.132 179C374.14 179 374.148 179 374.156 179C374.164 179 374.172 179 374.18 179C374.189 179 374.197 179 374.205 179C374.213 179 374.221 179 374.229 179C374.238 179 374.246 179 374.254 179C374.262 179 374.27 179 374.279 179C374.287 179 374.295 179 374.303 179C374.312 179 374.32 179 374.328 179C374.336 179 374.345 179 374.353 179C374.361 179 374.37 179 374.378 179C374.387 179 374.395 179 374.403 179C374.412 179 374.42 179 374.428 179C374.437 179 374.445 179 374.454 179C374.462 179 374.471 179 374.479 179C374.488 179 374.496 179 374.505 179C374.513 179 374.522 179 374.53 179C374.539 179 374.547 179 374.556 179C374.564 179 374.573 179 374.582 179C374.59 179 374.599 179 374.607 179C374.616 179 374.625 179 374.633 179C374.642 179 374.651 179 374.659 179C374.668 179 374.677 179 374.686 179C374.694 179 374.703 179 374.712 179C374.72 179 374.729 179 374.738 179C374.747 179 374.756 179 374.764 179C374.773 179 374.782 179 374.791 179C374.8 179 374.809 179 374.818 179C374.827 179 374.835 179 374.844 179C374.853 179 374.862 179 374.871 179C374.88 179 374.889 179 374.898 179C374.907 179 374.916 179 374.925 179C374.934 179 374.943 179 374.952 179C374.961 179 374.97 179 374.979 179C374.988 179 374.998 179 375.007 179C375.016 179 375.025 179 375.034 179C375.043 179 375.052 179 375.062 179C375.071 179 375.08 179 375.089 179C375.099 179 375.108 179 375.117 179C375.126 179 375.136 179 375.145 179C375.154 179 375.163 179 375.173 179C375.182 179 375.191 179 375.201 179C375.21 179 375.22 179 375.229 179C375.238 179 375.248 179 375.257 179C375.267 179 375.276 179 375.286 179C375.295 179 375.305 179 375.314 179C375.324 179 375.333 179 375.343 179C375.352 179 375.362 179 375.371 179C375.381 179 375.391 179 375.4 179C375.41 179 375.419 179 375.429 179C375.439 179 375.448 179 375.458 179C375.468 179 375.478 179 375.487 179C375.497 179 375.507 179 375.517 179C375.526 179 375.536 179 375.546 179C375.556 179 375.565 179 375.575 179C375.585 179 375.595 179 375.605 179C375.615 179 375.625 179 375.635 179C375.645 179 375.654 179 375.664 179C375.674 179 375.684 179 375.694 179C375.704 179 375.714 179 375.724 179C375.734 179 375.744 179 375.755 179C375.765 179 375.775 179 375.785 179C375.795 179 375.805 179 375.815 179C375.825 179 375.836 179 375.846 179C375.856 179 375.866 179 375.876 179C375.887 179 375.897 179 375.907 179C375.917 179 375.928 179 375.938 179C375.948 179 375.959 179 375.969 179C375.979 179 375.99 179 376 179V177ZM364 177C363.987 177 363.974 177 363.961 177C363.948 177 363.935 177 363.923 177C363.91 177 363.897 177 363.884 177C363.871 177 363.859 177 363.846 177C363.833 177 363.82 177 363.808 177C363.795 177 363.783 177 363.77 177C363.757 177 363.745 177 363.732 177C363.719 177 363.707 177 363.694 177C363.682 177 363.669 177 363.657 177C363.644 177 363.632 177 363.62 177C363.607 177 363.595 177 363.582 177C363.57 177 363.558 177 363.545 177C363.533 177 363.521 177 363.508 177C363.496 177 363.484 177 363.472 177C363.46 177 363.447 177 363.435 177C363.423 177 363.411 177 363.399 177C363.387 177 363.375 177 363.362 177C363.35 177 363.338 177 363.326 177C363.314 177 363.302 177 363.29 177C363.278 177 363.266 177 363.255 177C363.243 177 363.231 177 363.219 177C363.207 177 363.195 177 363.183 177C363.171 177 363.16 177 363.148 177C363.136 177 363.124 177 363.113 177C363.101 177 363.089 177 363.078 177C363.066 177 363.054 177 363.043 177C363.031 177 363.019 177 363.008 177C362.996 177 362.985 177 362.973 177C362.962 177 362.95 177 362.939 177C362.927 177 362.916 177 362.904 177C362.893 177 362.881 177 362.87 177C362.859 177 362.847 177 362.836 177C362.825 177 362.813 177 362.802 177C362.791 177 362.779 177 362.768 177C362.757 177 362.746 177 362.734 177C362.723 177 362.712 177 362.701 177C362.69 177 362.679 177 362.668 177C362.656 177 362.645 177 362.634 177C362.623 177 362.612 177 362.601 177C362.59 177 362.579 177 362.568 177C362.557 177 362.546 177 362.535 177C362.524 177 362.514 177 362.503 177C362.492 177 362.481 177 362.47 177C362.459 177 362.448 177 362.438 177C362.427 177 362.416 177 362.405 177C362.395 177 362.384 177 362.373 177C362.362 177 362.352 177 362.341 177C362.331 177 362.32 177 362.309 177C362.299 177 362.288 177 362.277 177C362.267 177 362.256 177 362.246 177C362.235 177 362.225 177 362.214 177C362.204 177 362.193 177 362.183 177C362.172 177 362.162 177 362.152 177C362.141 177 362.131 177 362.121 177C362.11 177 362.1 177 362.09 177C362.079 177 362.069 177 362.059 177C362.048 177 362.038 177 362.028 177C362.018 177 362.008 177 361.997 177C361.987 177 361.977 177 361.967 177C361.957 177 361.947 177 361.936 177C361.926 177 361.916 177 361.906 177C361.896 177 361.886 177 361.876 177C361.866 177 361.856 177 361.846 177C361.836 177 361.826 177 361.816 177C361.806 177 361.796 177 361.787 177C361.777 177 361.767 177 361.757 177C361.747 177 361.737 177 361.727 177C361.718 177 361.708 177 361.698 177C361.688 177 361.678 177 361.669 177C361.659 177 361.649 177 361.64 177C361.63 177 361.62 177 361.611 177C361.601 177 361.591 177 361.582 177C361.572 177 361.562 177 361.553 177C361.543 177 361.534 177 361.524 177C361.515 177 361.505 177 361.496 177C361.486 177 361.477 177 361.467 177C361.458 177 361.448 177 361.439 177C361.429 177 361.42 177 361.411 177C361.401 177 361.392 177 361.383 177C361.373 177 361.364 177 361.355 177C361.345 177 361.336 177 361.327 177C361.317 177 361.308 177 361.299 177C361.29 177 361.281 177 361.271 177C361.262 177 361.253 177 361.244 177C361.235 177 361.226 177 361.216 177C361.207 177 361.198 177 361.189 177C361.18 177 361.171 177 361.162 177C361.153 177 361.144 177 361.135 177C361.126 177 361.117 177 361.108 177C361.099 177 361.09 177 361.081 177C361.072 177 361.063 177 361.054 177C361.045 177 361.036 177 361.027 177C361.019 177 361.01 177 361.001 177C360.992 177 360.983 177 360.974 177C360.966 177 360.957 177 360.948 177C360.939 177 360.931 177 360.922 177C360.913 177 360.904 177 360.896 177C360.887 177 360.878 177 360.87 177C360.861 177 360.852 177 360.844 177C360.835 177 360.827 177 360.818 177C360.809 177 360.801 177 360.792 177C360.784 177 360.775 177 360.767 177C360.758 177 360.75 177 360.741 177C360.733 177 360.724 177 360.716 177C360.707 177 360.699 177 360.69 177C360.682 177 360.673 177 360.665 177C360.657 177 360.648 177 360.64 177C360.632 177 360.623 177 360.615 177C360.607 177 360.598 177 360.59 177C360.582 177 360.573 177 360.565 177C360.557 177 360.549 177 360.54 177C360.532 177 360.524 177 360.516 177C360.508 177 360.499 177 360.491 177C360.483 177 360.475 177 360.467 177C360.459 177 360.45 177 360.442 177C360.434 177 360.426 177 360.418 177C360.41 177 360.402 177 360.394 177C360.386 177 360.378 177 360.37 177C360.362 177 360.354 177 360.346 177C360.338 177 360.33 177 360.322 177C360.314 177 360.306 177 360.298 177C360.29 177 360.282 177 360.274 177C360.266 177 360.259 177 360.251 177C360.243 177 360.235 177 360.227 177C360.219 177 360.211 177 360.204 177C360.196 177 360.188 177 360.18 177C360.172 177 360.165 177 360.157 177C360.149 177 360.141 177 360.134 177C360.126 177 360.118 177 360.111 177C360.103 177 360.095 177 360.088 177C360.08 177 360.072 177 360.065 177C360.057 177 360.049 177 360.042 177C360.034 177 360.026 177 360.019 177C360.011 177 360.004 177 359.996 177C359.989 177 359.981 177 359.974 177C359.966 177 359.959 177 359.951 177C359.944 177 359.936 177 359.929 177C359.921 177 359.914 177 359.906 177C359.899 177 359.891 177 359.884 177C359.876 177 359.869 177 359.862 177C359.854 177 359.847 177 359.839 177C359.832 177 359.825 177 359.817 177C359.81 177 359.803 177 359.795 177C359.788 177 359.781 177 359.773 177C359.766 177 359.759 177 359.752 177C359.744 177 359.737 177 359.73 177C359.723 177 359.715 177 359.708 177C359.701 177 359.694 177 359.687 177C359.679 177 359.672 177 359.665 177C359.658 177 359.651 177 359.643 177C359.636 177 359.629 177 359.622 177C359.615 177 359.608 177 359.601 177C359.594 177 359.587 177 359.579 177C359.572 177 359.565 177 359.558 177C359.551 177 359.544 177 359.537 177C359.53 177 359.523 177 359.516 177C359.509 177 359.502 177 359.495 177C359.488 177 359.481 177 359.474 177C359.467 177 359.46 177 359.453 177C359.446 177 359.44 177 359.433 177C359.426 177 359.419 177 359.412 177C359.405 177 359.398 177 359.391 177C359.384 177 359.378 177 359.371 177C359.364 177 359.357 177 359.35 177C359.343 177 359.336 177 359.33 177C359.323 177 359.316 177 359.309 177C359.302 177 359.296 177 359.289 177C359.282 177 359.275 177 359.269 177C359.262 177 359.255 177 359.248 177C359.242 177 359.235 177 359.228 177C359.222 177 359.215 177 359.208 177C359.202 177 359.195 177 359.188 177C359.182 177 359.175 177 359.168 177C359.162 177 359.155 177 359.148 177C359.142 177 359.135 177 359.129 177C359.122 177 359.115 177 359.109 177C359.102 177 359.096 177 359.089 177C359.082 177 359.076 177 359.069 177C359.063 177 359.056 177 359.05 177C359.043 177 359.037 177 359.03 177C359.024 177 359.017 177 359.011 177C359.004 177 358.998 177 358.991 177C358.985 177 358.978 177 358.972 177C358.965 177 358.959 177 358.952 177C358.946 177 358.94 177 358.933 177C358.927 177 358.92 177 358.914 177C358.907 177 358.901 177 358.895 177C358.888 177 358.882 177 358.876 177C358.869 177 358.863 177 358.856 177C358.85 177 358.844 177 358.837 177C358.831 177 358.825 177 358.818 177C358.812 177 358.806 177 358.799 177C358.793 177 358.787 177 358.781 177C358.774 177 358.768 177 358.762 177C358.755 177 358.749 177 358.743 177C358.737 177 358.73 177 358.724 177C358.718 177 358.712 177 358.705 177C358.699 177 358.693 177 358.687 177C358.681 177 358.674 177 358.668 177C358.662 177 358.656 177 358.65 177C358.643 177 358.637 177 358.631 177C358.625 177 358.619 177 358.612 177C358.606 177 358.6 177 358.594 177C358.588 177 358.582 177 358.576 177C358.569 177 358.563 177 358.557 177C358.551 177 358.545 177 358.539 177C358.533 177 358.527 177 358.521 177C358.514 177 358.508 177 358.502 177C358.496 177 358.49 177 358.484 177C358.478 177 358.472 177 358.466 177C358.46 177 358.454 177 358.448 177C358.442 177 358.436 177 358.43 177C358.424 177 358.418 177 358.412 177C358.406 177 358.4 177 358.394 177C358.388 177 358.382 177 358.376 177C358.37 177 358.364 177 358.358 177C358.352 177 358.346 177 358.34 177C358.334 177 358.328 177 358.322 177C358.316 177 358.31 177 358.304 177C358.298 177 358.292 177 358.286 177C358.28 177 358.274 177 358.268 177C358.262 177 358.256 177 358.251 177C358.245 177 358.239 177 358.233 177C358.227 177 358.221 177 358.215 177C358.209 177 358.203 177 358.197 177C358.192 177 358.186 177 358.18 177C358.174 177 358.168 177 358.162 177C358.156 177 358.15 177 358.145 177C358.139 177 358.133 177 358.127 177C358.121 177 358.115 177 358.109 177C358.104 177 358.098 177 358.092 177C358.086 177 358.08 177 358.074 177C358.069 177 358.063 177 358.057 177C358.051 177 358.045 177 358.039 177C358.034 177 358.028 177 358.022 177C358.016 177 358.01 177 358.005 177C357.999 177 357.993 177 357.987 177C357.981 177 357.976 177 357.97 177C357.964 177 357.958 177 357.953 177C357.947 177 357.941 177 357.935 177C357.93 177 357.924 177 357.918 177C357.912 177 357.906 177 357.901 177C357.895 177 357.889 177 357.883 177C357.878 177 357.872 177 357.866 177C357.86 177 357.855 177 357.849 177C357.843 177 357.837 177 357.832 177C357.826 177 357.82 177 357.815 177C357.809 177 357.803 177 357.797 177C357.792 177 357.786 177 357.78 177C357.775 177 357.769 177 357.763 177C357.757 177 357.752 177 357.746 177C357.74 177 357.735 177 357.729 177C357.723 177 357.717 177 357.712 177C357.706 177 357.7 177 357.695 177C357.689 177 357.683 177 357.678 177C357.672 177 357.666 177 357.66 177C357.655 177 357.649 177 357.643 177C357.638 177 357.632 177 357.626 177C357.621 177 357.615 177 357.609 177C357.604 177 357.598 177 357.592 177C357.587 177 357.581 177 357.575 177C357.57 177 357.564 177 357.558 177C357.553 177 357.547 177 357.541 177C357.536 177 357.53 177 357.524 177C357.519 177 357.513 177 357.507 177C357.502 177 357.496 177 357.49 177C357.485 177 357.479 177 357.473 177C357.468 177 357.462 177 357.456 177C357.451 177 357.445 177 357.439 177C357.434 177 357.428 177 357.422 177C357.417 177 357.411 177 357.405 177C357.4 177 357.394 177 357.388 177C357.383 177 357.377 177 357.371 177C357.366 177 357.36 177 357.354 177C357.349 177 357.343 177 357.337 177C357.332 177 357.326 177 357.32 177C357.315 177 357.309 177 357.303 177C357.298 177 357.292 177 357.286 177C357.281 177 357.275 177 357.27 177C357.264 177 357.258 177 357.253 177C357.247 177 357.241 177 357.236 177C357.23 177 357.224 177 357.219 177C357.213 177 357.207 177 357.202 177C357.196 177 357.19 177 357.185 177C357.179 177 357.173 177 357.168 177C357.162 177 357.156 177 357.151 177C357.145 177 357.139 177 357.134 177C357.128 177 357.122 177 357.116 177C357.111 177 357.105 177 357.099 177C357.094 177 357.088 177 357.082 177C357.077 177 357.071 177 357.065 177C357.06 177 357.054 177 357.048 177C357.043 177 357.037 177 357.031 177C357.026 177 357.02 177 357.014 177C357.008 177 357.003 177 356.997 177C356.991 177 356.986 177 356.98 177C356.974 177 356.968 177 356.963 177C356.957 177 356.951 177 356.946 177C356.94 177 356.934 177 356.928 177C356.923 177 356.917 177 356.911 177C356.906 177 356.9 177 356.894 177C356.888 177 356.883 177 356.877 177C356.871 177 356.865 177 356.86 177C356.854 177 356.848 177 356.842 177C356.837 177 356.831 177 356.825 177C356.819 177 356.814 177 356.808 177C356.802 177 356.796 177 356.791 177C356.785 177 356.779 177 356.773 177C356.768 177 356.762 177 356.756 177C356.75 177 356.744 177 356.739 177C356.733 177 356.727 177 356.721 177C356.716 177 356.71 177 356.704 177C356.698 177 356.692 177 356.687 177C356.681 177 356.675 177 356.669 177C356.663 177 356.657 177 356.652 177C356.646 177 356.64 177 356.634 177C356.628 177 356.622 177 356.617 177C356.611 177 356.605 177 356.599 177C356.593 177 356.587 177 356.582 177C356.576 177 356.57 177 356.564 177C356.558 177 356.552 177 356.546 177C356.54 177 356.535 177 356.529 177C356.523 177 356.517 177 356.511 177C356.505 177 356.499 177 356.493 177C356.487 177 356.482 177 356.476 177C356.47 177 356.464 177 356.458 177C356.452 177 356.446 177 356.44 177C356.434 177 356.428 177 356.422 177C356.416 177 356.41 177 356.404 177C356.398 177 356.393 177 356.387 177C356.381 177 356.375 177 356.369 177C356.363 177 356.357 177 356.351 177C356.345 177 356.339 177 356.333 177C356.327 177 356.321 177 356.315 177C356.309 177 356.303 177 356.297 177C356.291 177 356.285 177 356.279 177C356.273 177 356.266 177 356.26 177C356.254 177 356.248 177 356.242 177C356.236 177 356.23 177 356.224 177C356.218 177 356.212 177 356.206 177C356.2 177 356.194 177 356.188 177C356.181 177 356.175 177 356.169 177C356.163 177 356.157 177 356.151 177C356.145 177 356.139 177 356.133 177C356.126 177 356.12 177 356.114 177C356.108 177 356.102 177 356.096 177C356.089 177 356.083 177 356.077 177C356.071 177 356.065 177 356.059 177C356.052 177 356.046 177 356.04 177C356.034 177 356.027 177 356.021 177C356.015 177 356.009 177 356.003 177C355.996 177 355.99 177 355.984 177C355.978 177 355.971 177 355.965 177C355.959 177 355.953 177 355.946 177C355.94 177 355.934 177 355.927 177C355.921 177 355.915 177 355.908 177C355.902 177 355.896 177 355.889 177C355.883 177 355.877 177 355.87 177C355.864 177 355.858 177 355.851 177C355.845 177 355.839 177 355.832 177C355.826 177 355.819 177 355.813 177C355.807 177 355.8 177 355.794 177C355.787 177 355.781 177 355.775 177C355.768 177 355.762 177 355.755 177C355.749 177 355.742 177 355.736 177C355.729 177 355.723 177 355.716 177C355.71 177 355.703 177 355.697 177C355.69 177 355.684 177 355.677 177C355.671 177 355.664 177 355.658 177C355.651 177 355.645 177 355.638 177C355.632 177 355.625 177 355.619 177C355.612 177 355.605 177 355.599 177C355.592 177 355.586 177 355.579 177C355.572 177 355.566 177 355.559 177C355.552 177 355.546 177 355.539 177C355.532 177 355.526 177 355.519 177C355.512 177 355.506 177 355.499 177C355.492 177 355.486 177 355.479 177C355.472 177 355.466 177 355.459 177C355.452 177 355.445 177 355.439 177C355.432 177 355.425 177 355.418 177C355.411 177 355.405 177 355.398 177C355.391 177 355.384 177 355.378 177C355.371 177 355.364 177 355.357 177C355.35 177 355.343 177 355.336 177C355.33 177 355.323 177 355.316 177C355.309 177 355.302 177 355.295 177C355.288 177 355.281 177 355.274 177C355.267 177 355.261 177 355.254 177C355.247 177 355.24 177 355.233 177C355.226 177 355.219 177 355.212 177C355.205 177 355.198 177 355.191 177C355.184 177 355.177 177 355.17 177C355.163 177 355.156 177 355.148 177C355.141 177 355.134 177 355.127 177C355.12 177 355.113 177 355.106 177C355.099 177 355.092 177 355.085 177C355.077 177 355.07 177 355.063 177C355.056 177 355.049 177 355.042 177C355.034 177 355.027 177 355.02 177C355.013 177 355.006 177 354.998 177C354.991 177 354.984 177 354.977 177C354.969 177 354.962 177 354.955 177C354.948 177 354.94 177 354.933 177C354.926 177 354.918 177 354.911 177C354.904 177 354.896 177 354.889 177C354.882 177 354.874 177 354.867 177C354.859 177 354.852 177 354.845 177C354.837 177 354.83 177 354.822 177C354.815 177 354.808 177 354.8 177C354.793 177 354.785 177 354.778 177C354.77 177 354.763 177 354.755 177C354.748 177 354.74 177 354.733 177C354.725 177 354.717 177 354.71 177C354.702 177 354.695 177 354.687 177C354.68 177 354.672 177 354.664 177C354.657 177 354.649 177 354.641 177C354.634 177 354.626 177 354.618 177C354.611 177 354.603 177 354.595 177C354.588 177 354.58 177 354.572 177C354.564 177 354.557 177 354.549 177C354.541 177 354.533 177 354.526 177C354.518 177 354.51 177 354.502 177C354.494 177 354.486 177 354.479 177C354.471 177 354.463 177 354.455 177C354.447 177 354.439 177 354.431 177C354.423 177 354.415 177 354.408 177C354.4 177 354.392 177 354.384 177C354.376 177 354.368 177 354.36 177C354.352 177 354.344 177 354.336 177C354.328 177 354.32 177 354.312 177C354.303 177 354.295 177 354.287 177C354.279 177 354.271 177 354.263 177C354.255 177 354.247 177 354.239 177C354.23 177 354.222 177 354.214 177C354.206 177 354.198 177 354.189 177C354.181 177 354.173 177 354.165 177C354.156 177 354.148 177 354.14 177C354.132 177 354.123 177 354.115 177C354.107 177 354.098 177 354.09 177C354.082 177 354.073 177 354.065 177C354.057 177 354.048 177 354.04 177C354.031 177 354.023 177 354.015 177C354.006 177 353.998 177 353.989 177C353.981 177 353.972 177 353.964 177C353.955 177 353.947 177 353.938 177C353.93 177 353.921 177 353.912 177C353.904 177 353.895 177 353.887 177C353.878 177 353.869 177 353.861 177C353.852 177 353.843 177 353.835 177C353.826 177 353.817 177 353.809 177C353.8 177 353.791 177 353.783 177C353.774 177 353.765 177 353.756 177C353.747 177 353.739 177 353.73 177C353.721 177 353.712 177 353.703 177C353.694 177 353.686 177 353.677 177C353.668 177 353.659 177 353.65 177C353.641 177 353.632 177 353.623 177C353.614 177 353.605 177 353.596 177C353.587 177 353.578 177 353.569 177C353.56 177 353.551 177 353.542 177C353.533 177 353.524 177 353.515 177C353.506 177 353.497 177 353.487 177C353.478 177 353.469 177 353.46 177C353.451 177 353.442 177 353.432 177C353.423 177 353.414 177 353.405 177C353.395 177 353.386 177 353.377 177C353.368 177 353.358 177 353.349 177C353.34 177 353.33 177 353.321 177C353.312 177 353.302 177 353.293 177C353.283 177 353.274 177 353.265 177C353.255 177 353.246 177 353.236 177C353.227 177 353.217 177 353.208 177C353.198 177 353.189 177 353.179 177C353.169 177 353.16 177 353.15 177C353.141 177 353.131 177 353.121 177C353.112 177 353.102 177 353.093 177C353.083 177 353.073 177 353.063 177C353.054 177 353.044 177 353.034 177C353.024 177 353.015 177 353.005 177C352.995 177 352.985 177 352.975 177C352.966 177 352.956 177 352.946 177C352.936 177 352.926 177 352.916 177C352.906 177 352.896 177 352.886 177C352.876 177 352.866 177 352.857 177C352.846 177 352.836 177 352.826 177C352.816 177 352.806 177 352.796 177C352.786 177 352.776 177 352.766 177C352.756 177 352.746 177 352.736 177C352.725 177 352.715 177 352.705 177C352.695 177 352.685 177 352.674 177C352.664 177 352.654 177 352.644 177C352.633 177 352.623 177 352.613 177C352.602 177 352.592 177 352.582 177C352.571 177 352.561 177 352.55 177C352.54 177 352.53 177 352.519 177C352.509 177 352.498 177 352.488 177C352.477 177 352.467 177 352.456 177C352.445 177 352.435 177 352.424 177C352.414 177 352.403 177 352.392 177C352.382 177 352.371 177 352.361 177C352.35 177 352.339 177 352.328 177C352.318 177 352.307 177 352.296 177C352.285 177 352.275 177 352.264 177C352.253 177 352.242 177 352.231 177C352.22 177 352.21 177 352.199 177C352.188 177 352.177 177 352.166 177C352.155 177 352.144 177 352.133 177C352.122 177 352.111 177 352.1 177C352.089 177 352.078 177 352.067 177C352.056 177 352.045 177 352.033 177C352.022 177 352.011 177 352 177V179C352.011 179 352.022 179 352.033 179C352.045 179 352.056 179 352.067 179C352.078 179 352.089 179 352.1 179C352.111 179 352.122 179 352.133 179C352.144 179 352.155 179 352.166 179C352.177 179 352.188 179 352.199 179C352.21 179 352.22 179 352.231 179C352.242 179 352.253 179 352.264 179C352.275 179 352.285 179 352.296 179C352.307 179 352.318 179 352.328 179C352.339 179 352.35 179 352.361 179C352.371 179 352.382 179 352.392 179C352.403 179 352.414 179 352.424 179C352.435 179 352.445 179 352.456 179C352.467 179 352.477 179 352.488 179C352.498 179 352.509 179 352.519 179C352.53 179 352.54 179 352.55 179C352.561 179 352.571 179 352.582 179C352.592 179 352.602 179 352.613 179C352.623 179 352.633 179 352.644 179C352.654 179 352.664 179 352.674 179C352.685 179 352.695 179 352.705 179C352.715 179 352.725 179 352.736 179C352.746 179 352.756 179 352.766 179C352.776 179 352.786 179 352.796 179C352.806 179 352.816 179 352.826 179C352.836 179 352.846 179 352.857 179C352.866 179 352.876 179 352.886 179C352.896 179 352.906 179 352.916 179C352.926 179 352.936 179 352.946 179C352.956 179 352.966 179 352.975 179C352.985 179 352.995 179 353.005 179C353.015 179 353.024 179 353.034 179C353.044 179 353.054 179 353.063 179C353.073 179 353.083 179 353.093 179C353.102 179 353.112 179 353.121 179C353.131 179 353.141 179 353.15 179C353.16 179 353.169 179 353.179 179C353.189 179 353.198 179 353.208 179C353.217 179 353.227 179 353.236 179C353.246 179 353.255 179 353.265 179C353.274 179 353.283 179 353.293 179C353.302 179 353.312 179 353.321 179C353.33 179 353.34 179 353.349 179C353.358 179 353.368 179 353.377 179C353.386 179 353.395 179 353.405 179C353.414 179 353.423 179 353.432 179C353.442 179 353.451 179 353.46 179C353.469 179 353.478 179 353.487 179C353.497 179 353.506 179 353.515 179C353.524 179 353.533 179 353.542 179C353.551 179 353.56 179 353.569 179C353.578 179 353.587 179 353.596 179C353.605 179 353.614 179 353.623 179C353.632 179 353.641 179 353.65 179C353.659 179 353.668 179 353.677 179C353.686 179 353.694 179 353.703 179C353.712 179 353.721 179 353.73 179C353.739 179 353.747 179 353.756 179C353.765 179 353.774 179 353.783 179C353.791 179 353.8 179 353.809 179C353.817 179 353.826 179 353.835 179C353.843 179 353.852 179 353.861 179C353.869 179 353.878 179 353.887 179C353.895 179 353.904 179 353.912 179C353.921 179 353.93 179 353.938 179C353.947 179 353.955 179 353.964 179C353.972 179 353.981 179 353.989 179C353.998 179 354.006 179 354.015 179C354.023 179 354.031 179 354.04 179C354.048 179 354.057 179 354.065 179C354.073 179 354.082 179 354.09 179C354.098 179 354.107 179 354.115 179C354.123 179 354.132 179 354.14 179C354.148 179 354.156 179 354.165 179C354.173 179 354.181 179 354.189 179C354.198 179 354.206 179 354.214 179C354.222 179 354.23 179 354.239 179C354.247 179 354.255 179 354.263 179C354.271 179 354.279 179 354.287 179C354.295 179 354.303 179 354.312 179C354.32 179 354.328 179 354.336 179C354.344 179 354.352 179 354.36 179C354.368 179 354.376 179 354.384 179C354.392 179 354.4 179 354.408 179C354.415 179 354.423 179 354.431 179C354.439 179 354.447 179 354.455 179C354.463 179 354.471 179 354.479 179C354.486 179 354.494 179 354.502 179C354.51 179 354.518 179 354.526 179C354.533 179 354.541 179 354.549 179C354.557 179 354.564 179 354.572 179C354.58 179 354.588 179 354.595 179C354.603 179 354.611 179 354.618 179C354.626 179 354.634 179 354.641 179C354.649 179 354.657 179 354.664 179C354.672 179 354.68 179 354.687 179C354.695 179 354.702 179 354.71 179C354.717 179 354.725 179 354.733 179C354.74 179 354.748 179 354.755 179C354.763 179 354.77 179 354.778 179C354.785 179 354.793 179 354.8 179C354.808 179 354.815 179 354.822 179C354.83 179 354.837 179 354.845 179C354.852 179 354.859 179 354.867 179C354.874 179 354.882 179 354.889 179C354.896 179 354.904 179 354.911 179C354.918 179 354.926 179 354.933 179C354.94 179 354.948 179 354.955 179C354.962 179 354.969 179 354.977 179C354.984 179 354.991 179 354.998 179C355.006 179 355.013 179 355.02 179C355.027 179 355.034 179 355.042 179C355.049 179 355.056 179 355.063 179C355.07 179 355.077 179 355.085 179C355.092 179 355.099 179 355.106 179C355.113 179 355.12 179 355.127 179C355.134 179 355.141 179 355.148 179C355.156 179 355.163 179 355.17 179C355.177 179 355.184 179 355.191 179C355.198 179 355.205 179 355.212 179C355.219 179 355.226 179 355.233 179C355.24 179 355.247 179 355.254 179C355.261 179 355.267 179 355.274 179C355.281 179 355.288 179 355.295 179C355.302 179 355.309 179 355.316 179C355.323 179 355.33 179 355.336 179C355.343 179 355.35 179 355.357 179C355.364 179 355.371 179 355.378 179C355.384 179 355.391 179 355.398 179C355.405 179 355.411 179 355.418 179C355.425 179 355.432 179 355.439 179C355.445 179 355.452 179 355.459 179C355.466 179 355.472 179 355.479 179C355.486 179 355.492 179 355.499 179C355.506 179 355.512 179 355.519 179C355.526 179 355.532 179 355.539 179C355.546 179 355.552 179 355.559 179C355.566 179 355.572 179 355.579 179C355.586 179 355.592 179 355.599 179C355.605 179 355.612 179 355.619 179C355.625 179 355.632 179 355.638 179C355.645 179 355.651 179 355.658 179C355.664 179 355.671 179 355.677 179C355.684 179 355.69 179 355.697 179C355.703 179 355.71 179 355.716 179C355.723 179 355.729 179 355.736 179C355.742 179 355.749 179 355.755 179C355.762 179 355.768 179 355.775 179C355.781 179 355.787 179 355.794 179C355.8 179 355.807 179 355.813 179C355.819 179 355.826 179 355.832 179C355.839 179 355.845 179 355.851 179C355.858 179 355.864 179 355.87 179C355.877 179 355.883 179 355.889 179C355.896 179 355.902 179 355.908 179C355.915 179 355.921 179 355.927 179C355.934 179 355.94 179 355.946 179C355.953 179 355.959 179 355.965 179C355.971 179 355.978 179 355.984 179C355.99 179 355.996 179 356.003 179C356.009 179 356.015 179 356.021 179C356.027 179 356.034 179 356.04 179C356.046 179 356.052 179 356.059 179C356.065 179 356.071 179 356.077 179C356.083 179 356.089 179 356.096 179C356.102 179 356.108 179 356.114 179C356.12 179 356.126 179 356.133 179C356.139 179 356.145 179 356.151 179C356.157 179 356.163 179 356.169 179C356.175 179 356.181 179 356.188 179C356.194 179 356.2 179 356.206 179C356.212 179 356.218 179 356.224 179C356.23 179 356.236 179 356.242 179C356.248 179 356.254 179 356.26 179C356.266 179 356.273 179 356.279 179C356.285 179 356.291 179 356.297 179C356.303 179 356.309 179 356.315 179C356.321 179 356.327 179 356.333 179C356.339 179 356.345 179 356.351 179C356.357 179 356.363 179 356.369 179C356.375 179 356.381 179 356.387 179C356.393 179 356.398 179 356.404 179C356.41 179 356.416 179 356.422 179C356.428 179 356.434 179 356.44 179C356.446 179 356.452 179 356.458 179C356.464 179 356.47 179 356.476 179C356.482 179 356.487 179 356.493 179C356.499 179 356.505 179 356.511 179C356.517 179 356.523 179 356.529 179C356.535 179 356.54 179 356.546 179C356.552 179 356.558 179 356.564 179C356.57 179 356.576 179 356.582 179C356.587 179 356.593 179 356.599 179C356.605 179 356.611 179 356.617 179C356.622 179 356.628 179 356.634 179C356.64 179 356.646 179 356.652 179C356.657 179 356.663 179 356.669 179C356.675 179 356.681 179 356.687 179C356.692 179 356.698 179 356.704 179C356.71 179 356.716 179 356.721 179C356.727 179 356.733 179 356.739 179C356.744 179 356.75 179 356.756 179C356.762 179 356.768 179 356.773 179C356.779 179 356.785 179 356.791 179C356.796 179 356.802 179 356.808 179C356.814 179 356.819 179 356.825 179C356.831 179 356.837 179 356.842 179C356.848 179 356.854 179 356.86 179C356.865 179 356.871 179 356.877 179C356.883 179 356.888 179 356.894 179C356.9 179 356.906 179 356.911 179C356.917 179 356.923 179 356.928 179C356.934 179 356.94 179 356.946 179C356.951 179 356.957 179 356.963 179C356.968 179 356.974 179 356.98 179C356.986 179 356.991 179 356.997 179C357.003 179 357.008 179 357.014 179C357.02 179 357.026 179 357.031 179C357.037 179 357.043 179 357.048 179C357.054 179 357.06 179 357.065 179C357.071 179 357.077 179 357.082 179C357.088 179 357.094 179 357.099 179C357.105 179 357.111 179 357.116 179C357.122 179 357.128 179 357.134 179C357.139 179 357.145 179 357.151 179C357.156 179 357.162 179 357.168 179C357.173 179 357.179 179 357.185 179C357.19 179 357.196 179 357.202 179C357.207 179 357.213 179 357.219 179C357.224 179 357.23 179 357.236 179C357.241 179 357.247 179 357.253 179C357.258 179 357.264 179 357.27 179C357.275 179 357.281 179 357.286 179C357.292 179 357.298 179 357.303 179C357.309 179 357.315 179 357.32 179C357.326 179 357.332 179 357.337 179C357.343 179 357.349 179 357.354 179C357.36 179 357.366 179 357.371 179C357.377 179 357.383 179 357.388 179C357.394 179 357.4 179 357.405 179C357.411 179 357.417 179 357.422 179C357.428 179 357.434 179 357.439 179C357.445 179 357.451 179 357.456 179C357.462 179 357.468 179 357.473 179C357.479 179 357.485 179 357.49 179C357.496 179 357.502 179 357.507 179C357.513 179 357.519 179 357.524 179C357.53 179 357.536 179 357.541 179C357.547 179 357.553 179 357.558 179C357.564 179 357.57 179 357.575 179C357.581 179 357.587 179 357.592 179C357.598 179 357.604 179 357.609 179C357.615 179 357.621 179 357.626 179C357.632 179 357.638 179 357.643 179C357.649 179 357.655 179 357.66 179C357.666 179 357.672 179 357.678 179C357.683 179 357.689 179 357.695 179C357.7 179 357.706 179 357.712 179C357.717 179 357.723 179 357.729 179C357.735 179 357.74 179 357.746 179C357.752 179 357.757 179 357.763 179C357.769 179 357.775 179 357.78 179C357.786 179 357.792 179 357.797 179C357.803 179 357.809 179 357.815 179C357.82 179 357.826 179 357.832 179C357.837 179 357.843 179 357.849 179C357.855 179 357.86 179 357.866 179C357.872 179 357.878 179 357.883 179C357.889 179 357.895 179 357.901 179C357.906 179 357.912 179 357.918 179C357.924 179 357.93 179 357.935 179C357.941 179 357.947 179 357.953 179C357.958 179 357.964 179 357.97 179C357.976 179 357.981 179 357.987 179C357.993 179 357.999 179 358.005 179C358.01 179 358.016 179 358.022 179C358.028 179 358.034 179 358.039 179C358.045 179 358.051 179 358.057 179C358.063 179 358.069 179 358.074 179C358.08 179 358.086 179 358.092 179C358.098 179 358.104 179 358.109 179C358.115 179 358.121 179 358.127 179C358.133 179 358.139 179 358.145 179C358.15 179 358.156 179 358.162 179C358.168 179 358.174 179 358.18 179C358.186 179 358.192 179 358.197 179C358.203 179 358.209 179 358.215 179C358.221 179 358.227 179 358.233 179C358.239 179 358.245 179 358.251 179C358.256 179 358.262 179 358.268 179C358.274 179 358.28 179 358.286 179C358.292 179 358.298 179 358.304 179C358.31 179 358.316 179 358.322 179C358.328 179 358.334 179 358.34 179C358.346 179 358.352 179 358.358 179C358.364 179 358.37 179 358.376 179C358.382 179 358.388 179 358.394 179C358.4 179 358.406 179 358.412 179C358.418 179 358.424 179 358.43 179C358.436 179 358.442 179 358.448 179C358.454 179 358.46 179 358.466 179C358.472 179 358.478 179 358.484 179C358.49 179 358.496 179 358.502 179C358.508 179 358.514 179 358.521 179C358.527 179 358.533 179 358.539 179C358.545 179 358.551 179 358.557 179C358.563 179 358.569 179 358.576 179C358.582 179 358.588 179 358.594 179C358.6 179 358.606 179 358.612 179C358.619 179 358.625 179 358.631 179C358.637 179 358.643 179 358.65 179C358.656 179 358.662 179 358.668 179C358.674 179 358.681 179 358.687 179C358.693 179 358.699 179 358.705 179C358.712 179 358.718 179 358.724 179C358.73 179 358.737 179 358.743 179C358.749 179 358.755 179 358.762 179C358.768 179 358.774 179 358.781 179C358.787 179 358.793 179 358.799 179C358.806 179 358.812 179 358.818 179C358.825 179 358.831 179 358.837 179C358.844 179 358.85 179 358.856 179C358.863 179 358.869 179 358.876 179C358.882 179 358.888 179 358.895 179C358.901 179 358.907 179 358.914 179C358.92 179 358.927 179 358.933 179C358.94 179 358.946 179 358.952 179C358.959 179 358.965 179 358.972 179C358.978 179 358.985 179 358.991 179C358.998 179 359.004 179 359.011 179C359.017 179 359.024 179 359.03 179C359.037 179 359.043 179 359.05 179C359.056 179 359.063 179 359.069 179C359.076 179 359.082 179 359.089 179C359.096 179 359.102 179 359.109 179C359.115 179 359.122 179 359.129 179C359.135 179 359.142 179 359.148 179C359.155 179 359.162 179 359.168 179C359.175 179 359.182 179 359.188 179C359.195 179 359.202 179 359.208 179C359.215 179 359.222 179 359.228 179C359.235 179 359.242 179 359.248 179C359.255 179 359.262 179 359.269 179C359.275 179 359.282 179 359.289 179C359.296 179 359.302 179 359.309 179C359.316 179 359.323 179 359.33 179C359.336 179 359.343 179 359.35 179C359.357 179 359.364 179 359.371 179C359.378 179 359.384 179 359.391 179C359.398 179 359.405 179 359.412 179C359.419 179 359.426 179 359.433 179C359.44 179 359.446 179 359.453 179C359.46 179 359.467 179 359.474 179C359.481 179 359.488 179 359.495 179C359.502 179 359.509 179 359.516 179C359.523 179 359.53 179 359.537 179C359.544 179 359.551 179 359.558 179C359.565 179 359.572 179 359.579 179C359.587 179 359.594 179 359.601 179C359.608 179 359.615 179 359.622 179C359.629 179 359.636 179 359.643 179C359.651 179 359.658 179 359.665 179C359.672 179 359.679 179 359.687 179C359.694 179 359.701 179 359.708 179C359.715 179 359.723 179 359.73 179C359.737 179 359.744 179 359.752 179C359.759 179 359.766 179 359.773 179C359.781 179 359.788 179 359.795 179C359.803 179 359.81 179 359.817 179C359.825 179 359.832 179 359.839 179C359.847 179 359.854 179 359.862 179C359.869 179 359.876 179 359.884 179C359.891 179 359.899 179 359.906 179C359.914 179 359.921 179 359.929 179C359.936 179 359.944 179 359.951 179C359.959 179 359.966 179 359.974 179C359.981 179 359.989 179 359.996 179C360.004 179 360.011 179 360.019 179C360.026 179 360.034 179 360.042 179C360.049 179 360.057 179 360.065 179C360.072 179 360.08 179 360.088 179C360.095 179 360.103 179 360.111 179C360.118 179 360.126 179 360.134 179C360.141 179 360.149 179 360.157 179C360.165 179 360.172 179 360.18 179C360.188 179 360.196 179 360.204 179C360.211 179 360.219 179 360.227 179C360.235 179 360.243 179 360.251 179C360.259 179 360.266 179 360.274 179C360.282 179 360.29 179 360.298 179C360.306 179 360.314 179 360.322 179C360.33 179 360.338 179 360.346 179C360.354 179 360.362 179 360.37 179C360.378 179 360.386 179 360.394 179C360.402 179 360.41 179 360.418 179C360.426 179 360.434 179 360.442 179C360.45 179 360.459 179 360.467 179C360.475 179 360.483 179 360.491 179C360.499 179 360.508 179 360.516 179C360.524 179 360.532 179 360.54 179C360.549 179 360.557 179 360.565 179C360.573 179 360.582 179 360.59 179C360.598 179 360.607 179 360.615 179C360.623 179 360.632 179 360.64 179C360.648 179 360.657 179 360.665 179C360.673 179 360.682 179 360.69 179C360.699 179 360.707 179 360.716 179C360.724 179 360.733 179 360.741 179C360.75 179 360.758 179 360.767 179C360.775 179 360.784 179 360.792 179C360.801 179 360.809 179 360.818 179C360.827 179 360.835 179 360.844 179C360.852 179 360.861 179 360.87 179C360.878 179 360.887 179 360.896 179C360.904 179 360.913 179 360.922 179C360.931 179 360.939 179 360.948 179C360.957 179 360.966 179 360.974 179C360.983 179 360.992 179 361.001 179C361.01 179 361.019 179 361.027 179C361.036 179 361.045 179 361.054 179C361.063 179 361.072 179 361.081 179C361.09 179 361.099 179 361.108 179C361.117 179 361.126 179 361.135 179C361.144 179 361.153 179 361.162 179C361.171 179 361.18 179 361.189 179C361.198 179 361.207 179 361.216 179C361.226 179 361.235 179 361.244 179C361.253 179 361.262 179 361.271 179C361.281 179 361.29 179 361.299 179C361.308 179 361.317 179 361.327 179C361.336 179 361.345 179 361.355 179C361.364 179 361.373 179 361.383 179C361.392 179 361.401 179 361.411 179C361.42 179 361.429 179 361.439 179C361.448 179 361.458 179 361.467 179C361.477 179 361.486 179 361.496 179C361.505 179 361.515 179 361.524 179C361.534 179 361.543 179 361.553 179C361.562 179 361.572 179 361.582 179C361.591 179 361.601 179 361.611 179C361.62 179 361.63 179 361.64 179C361.649 179 361.659 179 361.669 179C361.678 179 361.688 179 361.698 179C361.708 179 361.718 179 361.727 179C361.737 179 361.747 179 361.757 179C361.767 179 361.777 179 361.787 179C361.796 179 361.806 179 361.816 179C361.826 179 361.836 179 361.846 179C361.856 179 361.866 179 361.876 179C361.886 179 361.896 179 361.906 179C361.916 179 361.926 179 361.936 179C361.947 179 361.957 179 361.967 179C361.977 179 361.987 179 361.997 179C362.008 179 362.018 179 362.028 179C362.038 179 362.048 179 362.059 179C362.069 179 362.079 179 362.09 179C362.1 179 362.11 179 362.121 179C362.131 179 362.141 179 362.152 179C362.162 179 362.172 179 362.183 179C362.193 179 362.204 179 362.214 179C362.225 179 362.235 179 362.246 179C362.256 179 362.267 179 362.277 179C362.288 179 362.299 179 362.309 179C362.32 179 362.331 179 362.341 179C362.352 179 362.362 179 362.373 179C362.384 179 362.395 179 362.405 179C362.416 179 362.427 179 362.438 179C362.448 179 362.459 179 362.47 179C362.481 179 362.492 179 362.503 179C362.514 179 362.524 179 362.535 179C362.546 179 362.557 179 362.568 179C362.579 179 362.59 179 362.601 179C362.612 179 362.623 179 362.634 179C362.645 179 362.656 179 362.668 179C362.679 179 362.69 179 362.701 179C362.712 179 362.723 179 362.734 179C362.746 179 362.757 179 362.768 179C362.779 179 362.791 179 362.802 179C362.813 179 362.825 179 362.836 179C362.847 179 362.859 179 362.87 179C362.881 179 362.893 179 362.904 179C362.916 179 362.927 179 362.939 179C362.95 179 362.962 179 362.973 179C362.985 179 362.996 179 363.008 179C363.019 179 363.031 179 363.043 179C363.054 179 363.066 179 363.078 179C363.089 179 363.101 179 363.113 179C363.124 179 363.136 179 363.148 179C363.16 179 363.171 179 363.183 179C363.195 179 363.207 179 363.219 179C363.231 179 363.243 179 363.255 179C363.266 179 363.278 179 363.29 179C363.302 179 363.314 179 363.326 179C363.338 179 363.35 179 363.362 179C363.375 179 363.387 179 363.399 179C363.411 179 363.423 179 363.435 179C363.447 179 363.46 179 363.472 179C363.484 179 363.496 179 363.508 179C363.521 179 363.533 179 363.545 179C363.558 179 363.57 179 363.582 179C363.595 179 363.607 179 363.62 179C363.632 179 363.644 179 363.657 179C363.669 179 363.682 179 363.694 179C363.707 179 363.719 179 363.732 179C363.745 179 363.757 179 363.77 179C363.783 179 363.795 179 363.808 179C363.82 179 363.833 179 363.846 179C363.859 179 363.871 179 363.884 179C363.897 179 363.91 179 363.923 179C363.935 179 363.948 179 363.961 179C363.974 179 363.987 179 364 179V177ZM353 178C353 171.632 357.96 166.535 364 166.535V164.535C356.785 164.535 351 170.6 351 178H353ZM364 166.535C370.04 166.535 375 171.632 375 178H377C377 170.6 371.215 164.535 364 164.535V166.535ZM363 165.535V168.527H365V165.535H363ZM5 101.718H37V99.7183H5V101.718ZM37 176.501H5V178.501H37V176.501ZM5 176.501C3.34315 176.501 2 175.158 2 173.501H0C0 176.263 2.23858 178.501 5 178.501V176.501ZM37 178.501C39.7614 178.501 42 176.263 42 173.501H40C40 175.158 38.6569 176.501 37 176.501V178.501ZM37 101.718C38.6569 101.718 40 103.061 40 104.718H42C42 101.957 39.7614 99.7183 37 99.7183V101.718ZM5 99.7183C2.23858 99.7183 0 101.957 0 104.718H2C2 103.061 3.34315 101.718 5 101.718V99.7183ZM11 101.718H31V99.7183H11V101.718ZM30 100.718V101.707H32V100.718H30ZM28 103.707H14V105.707H28V103.707ZM12 101.707V100.718H10V101.707H12ZM14 103.707C12.8954 103.707 12 102.812 12 101.707H10C10 103.916 11.7909 105.707 14 105.707V103.707ZM30 101.707C30 102.812 29.1046 103.707 28 103.707V105.707C30.2091 105.707 32 103.916 32 101.707H30ZM183 121.659V145.592H185V121.659H183ZM26 100.22V14.9718H24V100.22H26ZM247 169.527H269V167.527H247V169.527ZM2 173.501V104.718H0V173.501H2ZM40 104.718V173.501H42V104.718H40Z" fill="#9D9DF4"/>
</svg>
